<svg xmlns="http://www.w3.org/2000/svg" fill-rule="evenodd" stroke-linejoin="round" stroke-miterlimit="2" clip-rule="evenodd" viewBox="0 0 600 600"><path fill="#b9224e" fill-rule="nonzero" d="M585 52l-95 396-151-24 32-406 214 34zm-83 423l-17 107-183-29 17-107 183 29z"/><path d="M513 477c1-6-3-12-9-13l-183-29c-6-1-12 3-13 9l-17 107c-1 6 3 12 10 13l182 29c6 1 12-4 13-10l17-106zm-11-2l-17 107-183-29 17-107 183 29zm94-420a11 11 0 00-9-14L372 7a11 11 0 00-12 11l-32 405a11 11 0 009 12l151 24a11 11 0 0013-9l95-395zm-11-3l-95 396-151-24 32-406 214 34z"/><path fill="#ffb13b" fill-rule="nonzero" d="M138 243H86v-16c0-8-1-13-2-15-2-2-4-3-7-3s-6 2-7 4c-2 3-3 7-3 13 0 7 1 13 3 17s7 8 16 13c25 15 40 28 47 38 6 9 9 25 9 47 0 15-1 27-5 34-4 8-11 14-21 19s-22 8-35 8c-15 0-28-3-39-9-10-6-17-13-21-22-3-9-5-22-5-38v-15h52v27l2 16c2 2 5 3 8 3 4 0 7-1 8-4 2-3 3-8 3-13 0-14-1-22-5-26-3-4-12-11-26-20s-23-16-27-21c-5-4-9-10-12-17-3-8-4-17-4-29 0-17 2-30 6-37 4-8 11-14 20-19 10-4 21-6 34-6 15 0 27 2 38 7 10 5 16 11 20 18 3 7 5 20 5 37v9zm161-67l-28 221h-85l-32-221h59c7 61 12 113 15 155 2-43 5-80 9-114l4-41h58zm145 82h-56v-20c0-13-1-21-2-24s-3-5-7-5-6 2-7 4c-1 3-2 10-2 21v106l2 20c1 3 3 4 7 4s7-2 8-5c2-3 3-10 3-21v-26h-12v-33h66v118h-35l-5-16c-4 7-9 12-15 16-6 3-13 5-20 5-10 0-19-3-27-7-8-5-14-11-18-18-5-7-7-14-8-21l-2-35v-65c0-21 1-36 3-46 3-10 9-18 19-26 11-8 24-12 41-12 16 0 30 3 41 10s18 15 21 25c3 9 5 23 5 41v10z"/><path d="M41 305H16c-7 0-12 6-12 13v14c0 19 2 33 5 43 4 12 13 22 27 29 12 7 27 11 44 11 16 0 30-3 42-9 13-7 22-15 27-25 4-9 6-22 6-40 0-25-4-43-12-55-5-8-16-18-34-30h29c7 0 13-6 13-13v-9c0-20-3-34-6-42-5-10-13-18-27-25a110 110 0 00-82 0c-12 5-21 13-26 24-5 9-8 23-8 43 0 13 2 25 5 33 4 10 9 17 14 23l20 15zm97-62H86v-16c0-8-1-13-2-15s-4-3-7-3-6 2-7 4c-2 3-3 7-3 13 0 8 1 13 3 17s7 8 16 13c25 15 40 28 47 38 6 9 9 25 9 47 0 15-1 27-5 34-4 8-11 14-21 19s-22 8-36 8c-15 0-27-3-38-9-10-6-17-13-21-22-3-9-5-22-5-39v-14h52v27c0 8 1 13 3 16 1 2 4 3 7 3 4 0 7-1 9-4l2-13c0-13-1-22-5-26-3-4-12-11-26-20s-23-16-28-21c-4-4-8-10-11-17-3-8-4-17-4-29 0-17 2-29 6-37s11-14 20-19c10-4 21-6 34-6 15 0 27 2 37 7 11 5 17 11 21 18 3 8 5 20 5 37v9z"/><path d="M227 185l-1-10a13 13 0 00-13-12h-59a13 13 0 00-13 15l32 221a13 13 0 0013 11h85a13 13 0 0013-11l28-221a13 13 0 00-13-15h-58a13 13 0 00-13 12l-1 10zm72-9l-28 221h-85l-32-221h59c7 61 12 113 14 155 3-43 6-81 10-114l4-41h58z"/><path d="M399 406a13 13 0 0010 4h35c7 0 13-6 13-13V279c0-5-2-9-6-11a13 13 0 006-10v-10c0-20-2-35-6-45-4-12-13-23-26-32-13-8-29-12-48-12-20 0-36 5-48 14a60 60 0 00-24 34c-3 10-4 26-4 49v65l2 36c1 10 4 19 10 27 5 9 13 16 23 22s21 9 33 9c10 0 19-3 27-7a45 45 0 003-2zm45-148h-56v-20c0-13-1-21-2-24s-3-5-7-5-6 1-7 4-2 10-2 21v106l2 20c1 3 3 4 7 4s7-1 8-5c2-3 3-10 3-21v-26h-12v-33h66v118h-35l-5-16c-4 7-9 12-15 16-6 3-13 5-20 5-10 0-19-3-27-7a56 56 0 01-27-39l-1-35v-65c0-21 1-37 3-46 3-10 9-18 19-26 11-8 24-12 41-12 16 0 30 3 41 10s18 15 21 25c3 9 5 23 5 41v10zM101 105V92l-1-19c-1-6-4-11-9-15s-10-7-17-9l-21-2c-8 0-15 1-22 3s-12 4-16 8C9 63 6 68 5 73L4 92v13c0 10 1 16 2 19 1 6 4 11 9 15 4 4 10 7 17 9l21 2 21-2c7-2 13-5 17-9 5-4 8-9 9-15l1-19zm-10 0l-1 17c-1 4-2 7-6 9-3 3-7 5-12 7l-19 2-18-2-13-6c-4-3-6-6-6-9l-1-18V92l1-17c0-3 2-6 5-9s8-5 13-6a74 74 0 0137 0c6 1 10 3 13 6l6 9 1 17v13zM58 79l-1-7-4-1-4 1-1 7v37l1 9 4 1 4-1 1-9V79z"/><path d="M146 147a10 10 0 005 2h33c6 0 10-5 10-11V59c0-6-4-10-10-10h-33a10 10 0 00-5 1 10 10 0 00-5-1h-33c-6 0-10 4-10 10v79c0 6 4 11 10 11h33l5-2zm38-88v79h-33v-33h-10v33h-33V59h33v28h10V59h33z"/><path d="M250 99c0-6-5-10-10-10h-42c-6 0-10 4-10 10v14c0 5 4 10 10 10h42c5 0 10-5 10-10V99zm-10 0v14h-42V99h42z"/><path d="M289 147a10 10 0 006 2h20l6-2a10 10 0 006 2h29c5 0 10-5 10-11V59c0-6-5-10-10-10h-43a10 10 0 00-8 4 10 10 0 00-8-4h-43c-6 0-10 4-10 10v79c0 6 4 11 10 11h29l6-2zm67-88v79h-29V85l-12 53h-20l-12-52v52h-29V59h43l3 17 5 20 8-37h43z"/><path d="M405 53a10 10 0 00-9-4h-30a10 10 0 00-9 14l22 49v26c0 6 5 11 10 11h31c5 0 10-5 10-11v-26l23-48a10 10 0 00-9-15h-30a10 10 0 00-9 4zm39 6l-24 51v28h-31v-28l-23-51h30c5 16 8 26 8 31 2-8 5-19 10-31h30z"/><path fill="#ffb13b" fill-rule="nonzero" d="M91 105l-1 17c-1 4-2 7-6 9-3 3-7 5-12 7l-19 2-18-2-13-6c-4-3-6-6-6-9l-1-18V92l1-17c0-3 2-6 5-9 4-3 8-5 13-6a73 73 0 0137 0c6 1 10 3 13 6l6 9 1 17v13zM58 79l-1-7-4-1-4 1-1 7v37l1 9 4 2 4-2 1-9V79zm126-20v79h-33v-33h-10v33h-33V59h33v28h10V59h33zm14 40h42v14h-42zm157-40v79h-28V85l-12 53h-20l-12-52v52h-29V59h43l3 17 5 20 8-37h42zm89 0l-24 51v28h-31v-28l-23-51h30c5 16 8 26 8 31l9-31h31z"/></svg>
