<svg xmlns="http://www.w3.org/2000/svg" xmlns:xlink="http://www.w3.org/1999/xlink" viewBox="0 0 256 256">
  <defs>
    <path id="reuse-0" d="M247.1 255a1 1 0 1 1-1.9 0 1 1 0 0 1 2 0Zm0-10.1a1 1 0 1 1-1.9 0 1 1 0 0 1 2 0Zm0-10.2a1 1 0 1 1-1.9 0 1 1 0 0 1 2 0Zm0-10.1a1 1 0 1 1-1.9 0 1 1 0 0 1 2 0Zm0-10.2a1 1 0 1 1-1.9 0 1 1 0 0 1 2 0Zm0-10.2a1 1 0 1 1-1.9 0 1 1 0 0 1 2 0Zm0-10.2a1 1 0 1 1-1.9 0 1 1 0 0 1 2 0Zm0-10.1a1 1 0 1 1-1.9 0 1 1 0 0 1 2 0Zm0-10.2a1 1 0 1 1-1.9 0 1 1 0 0 1 2 0Zm0-10.1a1 1 0 1 1-1.9 0 1 1 0 0 1 2 0Zm0-10.2a1 1 0 1 1-1.9 0 1 1 0 0 1 2 0Zm0-10.1a1 1 0 1 1-1.9 0 1 1 0 0 1 2 0Zm0-10.3a1 1 0 1 1-1.9 0 1 1 0 0 1 2 0Zm0-10a1 1 0 1 1-1.9 0 1 1 0 0 1 2 0Zm0-10.2a1 1 0 1 1-1.9 0 1 1 0 0 1 2 0Zm0-10.2a1 1 0 1 1-1.9 0 1 1 0 0 1 2 0Zm0-10.2a1 1 0 1 1-1.9 0 1 1 0 0 1 2 0Zm0-10.1a1 1 0 1 1-1.9 0 1 1 0 0 1 2 0Zm0-10.2a1 1 0 1 1-1.9 0 1 1 0 0 1 2 0Zm0-10.1a1 1 0 1 1-1.9 0 1 1 0 0 1 2 0Zm0-10.2a1 1 0 1 1-1.9 0 1 1 0 0 1 2 0Zm0-10.2a1 1 0 1 1-1.9 0 1 1 0 0 1 2 0Zm0-10.2a1 1 0 1 1-1.9 0 1 1 0 0 1 2 0Zm0-10.1a1 1 0 1 1-1.9 0 1 1 0 0 1 2 0Zm0-10.2a1 1 0 1 1-1.9 0 1 1 0 0 1 2 0Zm0-10.1a1 1 0 1 1-1-1c.6 0 1 .4 1 1Z" class="cls-2"/>
    <path id="reuse-1" d="M231.9 255a1 1 0 1 1-2 0 1 1 0 0 1 2 0Zm0-10.1a1 1 0 1 1-2 0 1 1 0 0 1 2 0Zm0-10.2a1 1 0 1 1-2 0 1 1 0 0 1 2 0Zm0-10.1a1 1 0 1 1-2 0 1 1 0 0 1 2 0Zm0-10.2a1 1 0 1 1-2 0 1 1 0 0 1 2 0Zm0-10.2a1 1 0 1 1-2 0 1 1 0 0 1 2 0Zm0-10.2a1 1 0 1 1-2 0 1 1 0 0 1 2 0Zm0-10.1a1 1 0 1 1-2 0 1 1 0 0 1 2 0Zm0-10.2a1 1 0 1 1-2 0 1 1 0 0 1 2 0Zm0-10.1a1 1 0 1 1-2 0 1 1 0 0 1 2 0Zm0-10.2a1 1 0 1 1-2 0 1 1 0 0 1 2 0Zm0-10.1a1 1 0 1 1-2 0 1 1 0 0 1 2 0Zm0-10.3a1 1 0 1 1-2 0 1 1 0 0 1 2 0Zm0-10a1 1 0 1 1-2 0 1 1 0 0 1 2 0Zm0-10.2a1 1 0 1 1-2 0 1 1 0 0 1 2 0Zm0-10.2a1 1 0 1 1-2 0 1 1 0 0 1 2 0Zm0-10.2a1 1 0 1 1-2 0 1 1 0 0 1 2 0Zm0-10.1a1 1 0 1 1-2 0 1 1 0 0 1 2 0Zm0-10.2a1 1 0 1 1-2 0 1 1 0 0 1 2 0Zm0-10.1a1 1 0 1 1-2 0 1 1 0 0 1 2 0Zm0-10.2a1 1 0 1 1-2 0 1 1 0 0 1 2 0Zm0-10.2a1 1 0 1 1-2 0 1 1 0 0 1 2 0Zm0-10.2a1 1 0 1 1-2 0 1 1 0 0 1 2 0Zm0-10.1a1 1 0 1 1-2 0 1 1 0 0 1 2 0Zm0-10.2a1 1 0 1 1-2 0 1 1 0 0 1 2 0Zm0-10.1a1 1 0 1 1-2 0 1 1 0 0 1 2 0Z" class="cls-2"/>
    <path id="reuse-2" d="M239.5 250a1 1 0 1 1-2 0 1 1 0 0 1 2 0Zm0-10.2a1 1 0 1 1-2 0 1 1 0 0 1 2 0Zm0-10.2a1 1 0 1 1-2 0 1 1 0 0 1 2 0Zm0-10.1a1 1 0 1 1-2 0 1 1 0 0 1 2 0Zm0-10.2a1 1 0 1 1-2 0 1 1 0 0 1 2 0Zm0-10.2a1 1 0 1 1-2 0 1 1 0 0 1 2 0Zm0-10.1a1 1 0 1 1-2 0 1 1 0 0 1 2 0Zm0-10.2a1 1 0 1 1-2 0 1 1 0 0 1 2 0Zm0-10.1a1 1 0 1 1-2 0 1 1 0 0 1 2 0Zm0-10.2a1 1 0 1 1-2 0 1 1 0 0 1 2 0Zm0-10.2a1 1 0 1 1-2 0 1 1 0 0 1 2 0Zm0-10.1a1 1 0 1 1-2 0 1 1 0 0 1 2 0Zm0-10.2a1 1 0 1 1-2 0 1 1 0 0 1 2 0Zm0-10.2a1 1 0 1 1-2 0 1 1 0 0 1 2 0Zm0-10.1a1 1 0 1 1-2 0 1 1 0 0 1 2 0Zm0-10.2a1 1 0 1 1-2 0 1 1 0 0 1 2 0Zm0-10.2a1 1 0 1 1-2 0 1 1 0 0 1 2 0Zm0-10.1a1 1 0 1 1-2 0 1 1 0 0 1 2 0Zm0-10.2a1 1 0 1 1-2 0 1 1 0 0 1 2 0Zm0-10.1a1 1 0 1 1-2 0 1 1 0 0 1 2 0Zm0-10.2a1 1 0 1 1-2 0 1 1 0 0 1 2 0Zm0-10.2a1 1 0 1 1-2 0 1 1 0 0 1 2 0Zm0-10.1a1 1 0 1 1-2 0 1 1 0 0 1 2 0Zm0-10.2a1 1 0 1 1-2 0 1 1 0 0 1 2 0Zm0-10.2a1 1 0 1 1-2 0 1 1 0 0 1 2 0Z" class="cls-2"/>
    <path id="reuse-3" d="M224.3 250a1 1 0 1 1-2 0 1 1 0 0 1 2 0Zm0-10.2a1 1 0 1 1-2 0 1 1 0 0 1 2 0Zm0-10.2a1 1 0 1 1-2 0 1 1 0 0 1 2 0Zm0-10.1a1 1 0 1 1-2 0 1 1 0 0 1 2 0Zm0-10.2a1 1 0 1 1-2 0 1 1 0 0 1 2 0Zm0-10.2a1 1 0 1 1-2 0 1 1 0 0 1 2 0Zm0-10.1a1 1 0 1 1-2 0 1 1 0 0 1 2 0Zm0-10.2a1 1 0 1 1-2 0 1 1 0 0 1 2 0Zm0-10.1a1 1 0 1 1-2 0 1 1 0 0 1 2 0Zm0-10.2a1 1 0 1 1-2 0 1 1 0 0 1 2 0Zm0-10.2a1 1 0 1 1-2 0 1 1 0 0 1 2 0Zm0-10.1a1 1 0 1 1-2 0 1 1 0 0 1 2 0Zm0-10.2a1 1 0 1 1-2 0 1 1 0 0 1 2 0Zm0-10.2a1 1 0 1 1-2 0 1 1 0 0 1 2 0Zm0-10.1a1 1 0 1 1-2 0 1 1 0 0 1 2 0Zm0-10.2a1 1 0 1 1-2 0 1 1 0 0 1 2 0Zm0-10.2a1 1 0 1 1-2 0 1 1 0 0 1 2 0Zm0-10.1a1 1 0 1 1-2 0 1 1 0 0 1 2 0Zm0-10.2a1 1 0 1 1-2 0 1 1 0 0 1 2 0Zm0-10.1a1 1 0 1 1-2 0 1 1 0 0 1 2 0Zm0-10.2a1 1 0 1 1-2 0 1 1 0 0 1 2 0Zm0-10.2a1 1 0 1 1-2 0 1 1 0 0 1 2 0Zm0-10.1a1 1 0 1 1-2 0 1 1 0 0 1 2 0Zm0-10.2a1 1 0 1 1-2 0 1 1 0 0 1 2 0Zm0-10.2a1 1 0 1 1-2 0 1 1 0 0 1 2 0Z" class="cls-2"/>
    <path id="reuse-4" d="M216.6 255a1 1 0 1 1-1.9 0 1 1 0 0 1 2 0Zm0-10.1a1 1 0 1 1-1.9 0 1 1 0 0 1 2 0Zm0-10.2a1 1 0 1 1-1.9 0 1 1 0 0 1 2 0Zm0-10.1a1 1 0 1 1-1.9 0 1 1 0 0 1 2 0Zm0-10.2a1 1 0 1 1-1.9 0 1 1 0 0 1 2 0Zm0-10.2a1 1 0 1 1-1.9 0 1 1 0 0 1 2 0Zm0-10.2a1 1 0 1 1-1.9 0 1 1 0 0 1 2 0Zm0-10.1a1 1 0 1 1-1.9 0 1 1 0 0 1 2 0Zm0-10.2a1 1 0 1 1-1.9 0 1 1 0 0 1 2 0Zm0-10.1a1 1 0 1 1-1.9 0 1 1 0 0 1 2 0Zm0-10.2a1 1 0 1 1-1.9 0 1 1 0 0 1 2 0Zm0-10.1a1 1 0 1 1-1.9 0 1 1 0 0 1 2 0Zm0-10.3a1 1 0 1 1-1.9 0 1 1 0 0 1 2 0Zm0-10a1 1 0 1 1-1.9 0 1 1 0 0 1 2 0Zm0-10.2a1 1 0 1 1-1.9 0 1 1 0 0 1 2 0Zm0-10.2a1 1 0 1 1-1.9 0 1 1 0 0 1 2 0Zm0-10.2a1 1 0 1 1-1.9 0 1 1 0 0 1 2 0Zm0-10.1a1 1 0 1 1-1.9 0 1 1 0 0 1 2 0Zm0-10.2a1 1 0 1 1-1.9 0 1 1 0 0 1 2 0Zm0-10.1a1 1 0 1 1-1.9 0 1 1 0 0 1 2 0Zm0-10.2a1 1 0 1 1-1.9 0 1 1 0 0 1 2 0Zm0-10.2a1 1 0 1 1-1.9 0 1 1 0 0 1 2 0Zm0-10.2a1 1 0 1 1-1.9 0 1 1 0 0 1 2 0Zm0-10.1a1 1 0 1 1-1.9 0 1 1 0 0 1 2 0Zm0-10.2a1 1 0 1 1-1.9 0 1 1 0 0 1 2 0Zm0-10.1a1 1 0 1 1-1.9 0 1 1 0 0 1 2 0Z" class="cls-2"/>
    <path id="reuse-5" d="M201.4 255a1 1 0 1 1-2 0 1 1 0 0 1 2 0Zm0-10.1a1 1 0 1 1-2 0 1 1 0 0 1 2 0Zm0-10.2a1 1 0 1 1-2 0 1 1 0 0 1 2 0Zm0-10.1a1 1 0 1 1-2 0 1 1 0 0 1 2 0Zm0-10.2a1 1 0 1 1-2 0 1 1 0 0 1 2 0Zm0-10.2a1 1 0 1 1-2 0 1 1 0 0 1 2 0Zm0-10.2a1 1 0 1 1-2 0 1 1 0 0 1 2 0Zm0-10.1a1 1 0 1 1-2 0 1 1 0 0 1 2 0Zm0-10.2a1 1 0 1 1-2 0 1 1 0 0 1 2 0Zm0-10.1a1 1 0 1 1-2 0 1 1 0 0 1 2 0Zm0-10.2a1 1 0 1 1-2 0 1 1 0 0 1 2 0Zm0-10.1a1 1 0 1 1-2 0 1 1 0 0 1 2 0Zm0-10.3a1 1 0 1 1-2 0 1 1 0 0 1 2 0Zm0-10a1 1 0 1 1-2 0 1 1 0 0 1 2 0Zm0-10.2a1 1 0 1 1-2 0 1 1 0 0 1 2 0Zm0-10.2a1 1 0 1 1-2 0 1 1 0 0 1 2 0Zm0-10.2a1 1 0 1 1-2 0 1 1 0 0 1 2 0Zm0-10.1a1 1 0 1 1-2 0 1 1 0 0 1 2 0Zm0-10.2a1 1 0 1 1-2 0 1 1 0 0 1 2 0Zm0-10.1a1 1 0 1 1-2 0 1 1 0 0 1 2 0Zm0-10.2a1 1 0 1 1-2 0 1 1 0 0 1 2 0Zm0-10.2a1 1 0 1 1-2 0 1 1 0 0 1 2 0Zm0-10.2a1 1 0 1 1-2 0 1 1 0 0 1 2 0Zm0-10.1a1 1 0 1 1-2 0 1 1 0 0 1 2 0Zm0-10.2a1 1 0 1 1-2 0 1 1 0 0 1 2 0Zm0-10.1a1 1 0 1 1-1-1c.6 0 1 .4 1 1Z" class="cls-2"/>
    <path id="reuse-6" d="M209 250a1 1 0 1 1-2 0 1 1 0 0 1 2 0Zm0-10.2a1 1 0 1 1-2 0 1 1 0 0 1 2 0Zm0-10.2a1 1 0 1 1-2 0 1 1 0 0 1 2 0Zm0-10.1a1 1 0 1 1-2 0 1 1 0 0 1 2 0Zm0-10.2a1 1 0 1 1-2 0 1 1 0 0 1 2 0Zm0-10.2a1 1 0 1 1-2 0 1 1 0 0 1 2 0Zm0-10.1a1 1 0 1 1-2 0 1 1 0 0 1 2 0Zm0-10.2a1 1 0 1 1-2 0 1 1 0 0 1 2 0Zm0-10.1a1 1 0 1 1-2 0 1 1 0 0 1 2 0Zm0-10.2a1 1 0 1 1-2 0 1 1 0 0 1 2 0Zm0-10.2a1 1 0 1 1-2 0 1 1 0 0 1 2 0Zm0-10.1a1 1 0 1 1-2 0 1 1 0 0 1 2 0Zm0-10.2a1 1 0 1 1-2 0 1 1 0 0 1 2 0Zm0-10.2a1 1 0 1 1-2 0 1 1 0 0 1 2 0Zm0-10.1a1 1 0 1 1-2 0 1 1 0 0 1 2 0Zm0-10.2a1 1 0 1 1-2 0 1 1 0 0 1 2 0Zm0-10.2a1 1 0 1 1-2 0 1 1 0 0 1 2 0Zm0-10.1a1 1 0 1 1-2 0 1 1 0 0 1 2 0Zm0-10.2a1 1 0 1 1-2 0 1 1 0 0 1 2 0Zm0-10.1a1 1 0 1 1-2 0 1 1 0 0 1 2 0Zm0-10.2a1 1 0 1 1-2 0 1 1 0 0 1 2 0Zm0-10.2a1 1 0 1 1-2 0 1 1 0 0 1 2 0Zm0-10.1a1 1 0 1 1-2 0 1 1 0 0 1 2 0Zm0-10.2a1 1 0 1 1-2 0 1 1 0 0 1 2 0ZM209 6a1 1 0 1 1-2 0 1 1 0 0 1 2 0Z" class="cls-2"/>
    <path id="reuse-7" d="M193.8 250a1 1 0 1 1-2 0 1 1 0 0 1 2 0Zm0-10.2a1 1 0 1 1-2 0 1 1 0 0 1 2 0Zm0-10.2a1 1 0 1 1-2 0 1 1 0 0 1 2 0Zm0-10.1a1 1 0 1 1-2 0 1 1 0 0 1 2 0Zm0-10.2a1 1 0 1 1-2 0 1 1 0 0 1 2 0Zm0-10.2a1 1 0 1 1-2 0 1 1 0 0 1 2 0Zm0-10.1a1 1 0 1 1-2 0 1 1 0 0 1 2 0Zm0-10.2a1 1 0 1 1-2 0 1 1 0 0 1 2 0Zm0-10.1a1 1 0 1 1-2 0 1 1 0 0 1 2 0Zm0-10.2a1 1 0 1 1-2 0 1 1 0 0 1 2 0Zm0-10.2a1 1 0 1 1-2 0 1 1 0 0 1 2 0Zm0-10.1a1 1 0 1 1-2 0 1 1 0 0 1 2 0Zm0-10.2a1 1 0 1 1-2 0 1 1 0 0 1 2 0Zm0-10.2a1 1 0 1 1-2 0 1 1 0 0 1 2 0Zm0-10.1a1 1 0 1 1-2 0 1 1 0 0 1 2 0Zm0-10.2a1 1 0 1 1-2 0 1 1 0 0 1 2 0Zm0-10.2a1 1 0 1 1-2 0 1 1 0 0 1 2 0Zm0-10.1a1 1 0 1 1-2 0 1 1 0 0 1 2 0Zm0-10.2a1 1 0 1 1-2 0 1 1 0 0 1 2 0Zm0-10.1a1 1 0 1 1-2 0 1 1 0 0 1 2 0Zm0-10.2a1 1 0 1 1-2 0 1 1 0 0 1 2 0Zm0-10.2a1 1 0 1 1-2 0 1 1 0 0 1 2 0Zm0-10.1a1 1 0 1 1-2 0 1 1 0 0 1 2 0Zm0-10.2a1 1 0 1 1-2 0 1 1 0 0 1 2 0Zm0-10.2a1 1 0 1 1-2 0 1 1 0 0 1 2 0Z" class="cls-2"/>
    <path id="reuse-8" d="M186.1 255a1 1 0 1 1-1.9 0 1 1 0 0 1 2 0Zm0-10.1a1 1 0 1 1-1.9 0 1 1 0 0 1 2 0Zm0-10.2a1 1 0 1 1-1.9 0 1 1 0 0 1 2 0Zm0-10.1a1 1 0 1 1-1.9 0 1 1 0 0 1 2 0Zm0-10.2a1 1 0 1 1-1.9 0 1 1 0 0 1 2 0Zm0-10.2a1 1 0 1 1-1.9 0 1 1 0 0 1 2 0Zm0-10.2a1 1 0 1 1-1.9 0 1 1 0 0 1 2 0Zm0-10.1a1 1 0 1 1-1.9 0 1 1 0 0 1 2 0Zm0-10.2a1 1 0 1 1-1.9 0 1 1 0 0 1 2 0Zm0-10.1a1 1 0 1 1-1.9 0 1 1 0 0 1 2 0Zm0-10.2a1 1 0 1 1-1.9 0 1 1 0 0 1 2 0Zm0-10.1a1 1 0 1 1-1.9 0 1 1 0 0 1 2 0Zm0-10.3a1 1 0 1 1-1.9 0 1 1 0 0 1 2 0Zm0-10a1 1 0 1 1-1.9 0 1 1 0 0 1 2 0Zm0-10.2a1 1 0 1 1-1.9 0 1 1 0 0 1 2 0Zm0-10.2a1 1 0 1 1-1.9 0 1 1 0 0 1 2 0Zm0-10.2a1 1 0 1 1-1.9 0 1 1 0 0 1 2 0Zm0-10.1a1 1 0 1 1-1.9 0 1 1 0 0 1 2 0Zm0-10.2a1 1 0 1 1-1.9 0 1 1 0 0 1 2 0Zm0-10.1a1 1 0 1 1-1.9 0 1 1 0 0 1 2 0Zm0-10.2a1 1 0 1 1-1.9 0 1 1 0 0 1 2 0Zm0-10.2a1 1 0 1 1-1.9 0 1 1 0 0 1 2 0Zm0-10.2a1 1 0 1 1-1.9 0 1 1 0 0 1 2 0Zm0-10.1a1 1 0 1 1-1.9 0 1 1 0 0 1 2 0Zm0-10.2a1 1 0 1 1-1.9 0 1 1 0 0 1 2 0Zm0-10.1a1 1 0 1 1-1.9 0 1 1 0 0 1 2 0Z" class="cls-2"/>
    <path id="reuse-9" d="M170.9 255a1 1 0 1 1-2 0 1 1 0 0 1 2 0Zm0-10.1a1 1 0 1 1-2 0 1 1 0 0 1 2 0Zm0-10.2a1 1 0 1 1-2 0 1 1 0 0 1 2 0Zm0-10.1a1 1 0 1 1-2 0 1 1 0 0 1 2 0Zm0-10.2a1 1 0 1 1-2 0 1 1 0 0 1 2 0Zm0-10.2a1 1 0 1 1-2 0 1 1 0 0 1 2 0Zm0-10.2a1 1 0 1 1-2 0 1 1 0 0 1 2 0Zm0-10.1a1 1 0 1 1-2 0 1 1 0 0 1 2 0Zm0-10.2a1 1 0 1 1-2 0 1 1 0 0 1 2 0Zm0-10.1a1 1 0 1 1-2 0 1 1 0 0 1 2 0Zm0-10.2a1 1 0 1 1-2 0 1 1 0 0 1 2 0Zm0-10.1a1 1 0 1 1-2 0 1 1 0 0 1 2 0Zm0-10.3a1 1 0 1 1-2 0 1 1 0 0 1 2 0Zm0-10a1 1 0 1 1-2 0 1 1 0 0 1 2 0Zm0-10.2a1 1 0 1 1-2 0 1 1 0 0 1 2 0Zm0-10.2a1 1 0 1 1-2 0 1 1 0 0 1 2 0Zm0-10.2a1 1 0 1 1-2 0 1 1 0 0 1 2 0Zm0-10.1a1 1 0 1 1-2 0 1 1 0 0 1 2 0Zm0-10.2a1 1 0 1 1-2 0 1 1 0 0 1 2 0Zm0-10.1a1 1 0 1 1-2 0 1 1 0 0 1 2 0Zm0-10.2a1 1 0 1 1-2 0 1 1 0 0 1 2 0Zm0-10.2a1 1 0 1 1-2 0 1 1 0 0 1 2 0Zm0-10.2a1 1 0 1 1-2 0 1 1 0 0 1 2 0Zm0-10.1a1 1 0 1 1-2 0 1 1 0 0 1 2 0Zm0-10.2a1 1 0 1 1-2 0 1 1 0 0 1 2 0Zm0-10.1a1 1 0 1 1-1-1c.6 0 1 .4 1 1Z" class="cls-2"/>
    <path id="reuse-10" d="M178.5 250a1 1 0 1 1-1.9 0 1 1 0 0 1 2 0Zm0-10.2a1 1 0 1 1-1.9 0 1 1 0 0 1 2 0Zm0-10.2a1 1 0 1 1-1.9 0 1 1 0 0 1 2 0Zm0-10.1a1 1 0 1 1-1.9 0 1 1 0 0 1 2 0Zm0-10.2a1 1 0 1 1-1.9 0 1 1 0 0 1 2 0Zm0-10.2a1 1 0 1 1-1.9 0 1 1 0 0 1 2 0Zm0-10.1a1 1 0 1 1-1.9 0 1 1 0 0 1 2 0Zm0-10.2a1 1 0 1 1-1.9 0 1 1 0 0 1 2 0Zm0-10.1a1 1 0 1 1-1.9 0 1 1 0 0 1 2 0Zm0-10.2a1 1 0 1 1-1.9 0 1 1 0 0 1 2 0Zm0-10.2a1 1 0 1 1-1.9 0 1 1 0 0 1 2 0Zm0-10.1a1 1 0 1 1-1.9 0 1 1 0 0 1 2 0Zm0-10.2a1 1 0 1 1-1.9 0 1 1 0 0 1 2 0Zm0-10.2a1 1 0 1 1-1.9 0 1 1 0 0 1 2 0Zm0-10.1a1 1 0 1 1-1.9 0 1 1 0 0 1 2 0Zm0-10.2a1 1 0 1 1-1.9 0 1 1 0 0 1 2 0Zm0-10.2a1 1 0 1 1-1.9 0 1 1 0 0 1 2 0Zm0-10.1a1 1 0 1 1-1.9 0 1 1 0 0 1 2 0Zm0-10.2a1 1 0 1 1-1.9 0 1 1 0 0 1 2 0Zm0-10.1a1 1 0 1 1-1.9 0 1 1 0 0 1 2 0Zm0-10.2a1 1 0 1 1-1.9 0 1 1 0 0 1 2 0Zm0-10.2a1 1 0 1 1-1.9 0 1 1 0 0 1 2 0Zm0-10.1a1 1 0 1 1-1.9 0 1 1 0 0 1 2 0Zm0-10.2a1 1 0 1 1-1.9 0 1 1 0 0 1 2 0Zm0-10.2a1 1 0 1 1-1.9 0 1 1 0 0 1 2 0Z" class="cls-2"/>
    <path id="reuse-11" d="M163.3 250a1 1 0 1 1-2 0 1 1 0 0 1 2 0Zm0-10.2a1 1 0 1 1-2 0 1 1 0 0 1 2 0Zm0-10.2a1 1 0 1 1-2 0 1 1 0 0 1 2 0Zm0-10.1a1 1 0 1 1-2 0 1 1 0 0 1 2 0Zm0-10.2a1 1 0 1 1-2 0 1 1 0 0 1 2 0Zm0-10.2a1 1 0 1 1-2 0 1 1 0 0 1 2 0Zm0-10.1a1 1 0 1 1-2 0 1 1 0 0 1 2 0Zm0-10.2a1 1 0 1 1-2 0 1 1 0 0 1 2 0Zm0-10.1a1 1 0 1 1-2 0 1 1 0 0 1 2 0Zm0-10.2a1 1 0 1 1-2 0 1 1 0 0 1 2 0Zm0-10.2a1 1 0 1 1-2 0 1 1 0 0 1 2 0Zm0-10.1a1 1 0 1 1-2 0 1 1 0 0 1 2 0Zm0-10.2a1 1 0 1 1-2 0 1 1 0 0 1 2 0Zm0-10.2a1 1 0 1 1-2 0 1 1 0 0 1 2 0Zm0-10.1a1 1 0 1 1-2 0 1 1 0 0 1 2 0Zm0-10.2a1 1 0 1 1-2 0 1 1 0 0 1 2 0Zm0-10.2a1 1 0 1 1-2 0 1 1 0 0 1 2 0Zm0-10.1a1 1 0 1 1-2 0 1 1 0 0 1 2 0Zm0-10.2a1 1 0 1 1-2 0 1 1 0 0 1 2 0Zm0-10.1a1 1 0 1 1-2 0 1 1 0 0 1 2 0Zm0-10.2a1 1 0 1 1-2 0 1 1 0 0 1 2 0Zm0-10.2a1 1 0 1 1-2 0 1 1 0 0 1 2 0Zm0-10.1a1 1 0 1 1-2 0 1 1 0 0 1 2 0Zm0-10.2a1 1 0 1 1-2 0 1 1 0 0 1 2 0Zm0-10.2a1 1 0 1 1-2 0 1 1 0 0 1 2 0Z" class="cls-2"/>
    <path id="reuse-12" d="M155.6 255a1 1 0 1 1-1.9 0 1 1 0 0 1 2 0Zm0-10.1a1 1 0 1 1-1.9 0 1 1 0 0 1 2 0Zm0-10.2a1 1 0 1 1-1.9 0 1 1 0 0 1 2 0Zm0-10.1a1 1 0 1 1-1.9 0 1 1 0 0 1 2 0Zm0-10.2a1 1 0 1 1-1.9 0 1 1 0 0 1 2 0Zm0-10.2a1 1 0 1 1-1.9 0 1 1 0 0 1 2 0Zm0-10.2a1 1 0 1 1-1.9 0 1 1 0 0 1 2 0Zm0-10.1a1 1 0 1 1-1.9 0 1 1 0 0 1 2 0Zm0-10.2a1 1 0 1 1-1.9 0 1 1 0 0 1 2 0Zm0-10.1a1 1 0 1 1-1.9 0 1 1 0 0 1 2 0Zm0-10.2a1 1 0 1 1-1.9 0 1 1 0 0 1 2 0Zm0-10.1a1 1 0 1 1-1.9 0 1 1 0 0 1 2 0Zm0-10.3a1 1 0 1 1-1.9 0 1 1 0 0 1 2 0Zm0-10a1 1 0 1 1-1.9 0 1 1 0 0 1 2 0Zm0-10.2a1 1 0 1 1-1.9 0 1 1 0 0 1 2 0Zm0-10.2a1 1 0 1 1-1.9 0 1 1 0 0 1 2 0Zm0-10.2a1 1 0 1 1-1.9 0 1 1 0 0 1 2 0Zm0-10.1a1 1 0 1 1-1.9 0 1 1 0 0 1 2 0Zm0-10.2a1 1 0 1 1-1.9 0 1 1 0 0 1 2 0Zm0-10.1a1 1 0 1 1-1.9 0 1 1 0 0 1 2 0Zm0-10.2a1 1 0 1 1-1.9 0 1 1 0 0 1 2 0Zm0-10.2a1 1 0 1 1-1.9 0 1 1 0 0 1 2 0Zm0-10.2a1 1 0 1 1-1.9 0 1 1 0 0 1 2 0Zm0-10.1a1 1 0 1 1-1.9 0 1 1 0 0 1 2 0Zm0-10.2a1 1 0 1 1-1.9 0 1 1 0 0 1 2 0Zm0-10.1a1 1 0 1 1-1.9 0 1 1 0 0 1 2 0Z" class="cls-2"/>
    <path id="reuse-13" d="M140.4 255a1 1 0 1 1-2 0 1 1 0 0 1 2 0Zm0-10.1a1 1 0 1 1-2 0 1 1 0 0 1 2 0Zm0-10.2a1 1 0 1 1-2 0 1 1 0 0 1 2 0Zm0-10.1a1 1 0 1 1-2 0 1 1 0 0 1 2 0Zm0-10.2a1 1 0 1 1-2 0 1 1 0 0 1 2 0Zm0-10.2a1 1 0 1 1-2 0 1 1 0 0 1 2 0Zm0-10.2a1 1 0 1 1-2 0 1 1 0 0 1 2 0Zm0-10.1a1 1 0 1 1-2 0 1 1 0 0 1 2 0Zm0-10.2a1 1 0 1 1-2 0 1 1 0 0 1 2 0Zm0-10.1a1 1 0 1 1-2 0 1 1 0 0 1 2 0Zm0-10.2a1 1 0 1 1-2 0 1 1 0 0 1 2 0Zm0-10.1a1 1 0 1 1-2 0 1 1 0 0 1 2 0Zm0-10.3a1 1 0 1 1-2 0 1 1 0 0 1 2 0Zm0-10a1 1 0 1 1-2 0 1 1 0 0 1 2 0Zm0-10.2a1 1 0 1 1-2 0 1 1 0 0 1 2 0Zm0-10.2a1 1 0 1 1-2 0 1 1 0 0 1 2 0Zm0-10.2a1 1 0 1 1-2 0 1 1 0 0 1 2 0Zm0-10.1a1 1 0 1 1-2 0 1 1 0 0 1 2 0Zm0-10.2a1 1 0 1 1-2 0 1 1 0 0 1 2 0Zm0-10.1a1 1 0 1 1-2 0 1 1 0 0 1 2 0Zm0-10.2a1 1 0 1 1-2 0 1 1 0 0 1 2 0Zm0-10.2a1 1 0 1 1-2 0 1 1 0 0 1 2 0Zm0-10.2a1 1 0 1 1-2 0 1 1 0 0 1 2 0Zm0-10.1a1 1 0 1 1-2 0 1 1 0 0 1 2 0Zm0-10.2a1 1 0 1 1-2 0 1 1 0 0 1 2 0Zm0-10.1a1 1 0 1 1-1-1c.6 0 1 .4 1 1Z" class="cls-2"/>
    <path id="reuse-14" d="M148 250a1 1 0 1 1-1.9 0 1 1 0 0 1 2 0Zm0-10.2a1 1 0 1 1-1.9 0 1 1 0 0 1 2 0Zm0-10.2a1 1 0 1 1-1.9 0 1 1 0 0 1 2 0Zm0-10.1a1 1 0 1 1-1.9 0 1 1 0 0 1 2 0Zm0-10.2a1 1 0 1 1-1.9 0 1 1 0 0 1 2 0Zm0-10.2a1 1 0 1 1-1.9 0 1 1 0 0 1 2 0Zm0-10.1a1 1 0 1 1-1.9 0 1 1 0 0 1 2 0Zm0-10.2a1 1 0 1 1-1.9 0 1 1 0 0 1 2 0Zm0-10.1a1 1 0 1 1-1.9 0 1 1 0 0 1 2 0Zm0-10.2a1 1 0 1 1-1.9 0 1 1 0 0 1 2 0Zm0-10.2a1 1 0 1 1-1.9 0 1 1 0 0 1 2 0Zm0-10.1a1 1 0 1 1-1.9 0 1 1 0 0 1 2 0Zm0-10.2a1 1 0 1 1-1.9 0 1 1 0 0 1 2 0Zm0-10.2a1 1 0 1 1-1.9 0 1 1 0 0 1 2 0Zm0-10.1a1 1 0 1 1-1.9 0 1 1 0 0 1 2 0Zm0-10.2a1 1 0 1 1-1.9 0 1 1 0 0 1 2 0Zm0-10.2a1 1 0 1 1-1.9 0 1 1 0 0 1 2 0Zm0-10.1a1 1 0 1 1-1.9 0 1 1 0 0 1 2 0Zm0-10.2a1 1 0 1 1-1.9 0 1 1 0 0 1 2 0Zm0-10.1a1 1 0 1 1-1.9 0 1 1 0 0 1 2 0Zm0-10.2a1 1 0 1 1-1.9 0 1 1 0 0 1 2 0Zm0-10.2a1 1 0 1 1-1.9 0 1 1 0 0 1 2 0Zm0-10.1a1 1 0 1 1-1.9 0 1 1 0 0 1 2 0Zm0-10.2a1 1 0 1 1-1.9 0 1 1 0 0 1 2 0ZM148 6a1 1 0 1 1-1.9 0 1 1 0 0 1 2 0Z" class="cls-2"/>
    <path id="reuse-15" d="M132.8 250a1 1 0 1 1-2 0 1 1 0 0 1 2 0Zm0-10.2a1 1 0 1 1-2 0 1 1 0 0 1 2 0Zm0-10.2a1 1 0 1 1-2 0 1 1 0 0 1 2 0Zm0-10.1a1 1 0 1 1-2 0 1 1 0 0 1 2 0Zm0-10.2a1 1 0 1 1-2 0 1 1 0 0 1 2 0Zm0-10.2a1 1 0 1 1-2 0 1 1 0 0 1 2 0Zm0-10.1a1 1 0 1 1-2 0 1 1 0 0 1 2 0Zm0-10.2a1 1 0 1 1-2 0 1 1 0 0 1 2 0Zm0-10.1a1 1 0 1 1-2 0 1 1 0 0 1 2 0Zm0-10.2a1 1 0 1 1-2 0 1 1 0 0 1 2 0Zm0-10.2a1 1 0 1 1-2 0 1 1 0 0 1 2 0Zm0-10.1a1 1 0 1 1-2 0 1 1 0 0 1 2 0Zm0-10.2a1 1 0 1 1-2 0 1 1 0 0 1 2 0Zm0-10.2a1 1 0 1 1-2 0 1 1 0 0 1 2 0Zm0-10.1a1 1 0 1 1-2 0 1 1 0 0 1 2 0Zm0-10.2a1 1 0 1 1-2 0 1 1 0 0 1 2 0Zm0-10.2a1 1 0 1 1-2 0 1 1 0 0 1 2 0Zm0-10.1a1 1 0 1 1-2 0 1 1 0 0 1 2 0Zm0-10.2a1 1 0 1 1-2 0 1 1 0 0 1 2 0Zm0-10.1a1 1 0 1 1-2 0 1 1 0 0 1 2 0Zm0-10.2a1 1 0 1 1-2 0 1 1 0 0 1 2 0Zm0-10.2a1 1 0 1 1-2 0 1 1 0 0 1 2 0Zm0-10.1a1 1 0 1 1-2 0 1 1 0 0 1 2 0Zm0-10.2a1 1 0 1 1-2 0 1 1 0 0 1 2 0Zm0-10.2a1 1 0 1 1-2 0 1 1 0 0 1 2 0Z" class="cls-2"/>
    <path id="reuse-16" d="M125.1 255a1 1 0 1 1-1.9 0 1 1 0 0 1 2 0Zm0-10.1a1 1 0 1 1-1.9 0 1 1 0 0 1 2 0Zm0-10.2a1 1 0 1 1-1.9 0 1 1 0 0 1 2 0Zm0-10.1a1 1 0 1 1-1.9 0 1 1 0 0 1 2 0Zm0-10.2a1 1 0 1 1-1.9 0 1 1 0 0 1 2 0Zm0-10.2a1 1 0 1 1-1.9 0 1 1 0 0 1 2 0Zm0-10.2a1 1 0 1 1-1.9 0 1 1 0 0 1 2 0Zm0-10.1a1 1 0 1 1-1.9 0 1 1 0 0 1 2 0Zm0-10.2a1 1 0 1 1-1.9 0 1 1 0 0 1 2 0Zm0-10.1a1 1 0 1 1-1.9 0 1 1 0 0 1 2 0Zm0-10.2a1 1 0 1 1-1.9 0 1 1 0 0 1 2 0Zm0-10.1a1 1 0 1 1-1.9 0 1 1 0 0 1 2 0Zm0-10.3a1 1 0 1 1-1.9 0 1 1 0 0 1 2 0Zm0-10a1 1 0 1 1-1.9 0 1 1 0 0 1 2 0Zm0-10.2a1 1 0 1 1-1.9 0 1 1 0 0 1 2 0Zm0-10.2a1 1 0 1 1-1.9 0 1 1 0 0 1 2 0Zm0-10.2a1 1 0 1 1-1.9 0 1 1 0 0 1 2 0Zm0-10.1a1 1 0 1 1-1.9 0 1 1 0 0 1 2 0Zm0-10.2a1 1 0 1 1-1.9 0 1 1 0 0 1 2 0Zm0-10.1a1 1 0 1 1-1.9 0 1 1 0 0 1 2 0Zm0-10.2a1 1 0 1 1-1.9 0 1 1 0 0 1 2 0Zm0-10.2a1 1 0 1 1-1.9 0 1 1 0 0 1 2 0Zm0-10.2a1 1 0 1 1-1.9 0 1 1 0 0 1 2 0Zm0-10.1a1 1 0 1 1-1.9 0 1 1 0 0 1 2 0Zm0-10.2a1 1 0 1 1-1.9 0 1 1 0 0 1 2 0Zm0-10.1a1 1 0 1 1-1.9 0 1 1 0 0 1 2 0Z" class="cls-2"/>
    <path id="reuse-17" d="M109.9 255a1 1 0 1 1-2 0 1 1 0 0 1 2 0Zm0-10.1a1 1 0 1 1-2 0 1 1 0 0 1 2 0Zm0-10.2a1 1 0 1 1-2 0 1 1 0 0 1 2 0Zm0-10.1a1 1 0 1 1-2 0 1 1 0 0 1 2 0Zm0-10.2a1 1 0 1 1-2 0 1 1 0 0 1 2 0Zm0-10.2a1 1 0 1 1-2 0 1 1 0 0 1 2 0Zm0-10.2a1 1 0 1 1-2 0 1 1 0 0 1 2 0Zm0-10.1a1 1 0 1 1-2 0 1 1 0 0 1 2 0Zm0-10.2a1 1 0 1 1-2 0 1 1 0 0 1 2 0Zm0-10.1a1 1 0 1 1-2 0 1 1 0 0 1 2 0Zm0-10.2a1 1 0 1 1-2 0 1 1 0 0 1 2 0Zm0-10.1a1 1 0 1 1-2 0 1 1 0 0 1 2 0Zm0-10.3a1 1 0 1 1-2 0 1 1 0 0 1 2 0Zm0-10a1 1 0 1 1-2 0 1 1 0 0 1 2 0Zm0-10.2a1 1 0 1 1-2 0 1 1 0 0 1 2 0Zm0-10.2a1 1 0 1 1-2 0 1 1 0 0 1 2 0Zm0-10.2a1 1 0 1 1-2 0 1 1 0 0 1 2 0Zm0-10.1a1 1 0 1 1-2 0 1 1 0 0 1 2 0Zm0-10.2a1 1 0 1 1-2 0 1 1 0 0 1 2 0Zm0-10.1a1 1 0 1 1-2 0 1 1 0 0 1 2 0Zm0-10.2a1 1 0 1 1-2 0 1 1 0 0 1 2 0Zm0-10.2a1 1 0 1 1-2 0 1 1 0 0 1 2 0Zm0-10.2a1 1 0 1 1-2 0 1 1 0 0 1 2 0Zm0-10.1a1 1 0 1 1-2 0 1 1 0 0 1 2 0Zm0-10.2a1 1 0 1 1-2 0 1 1 0 0 1 2 0Zm0-10.1a1 1 0 1 1-2 0 1 1 0 0 1 2 0Z" class="cls-2"/>
    <path id="reuse-18" d="M117.5 250a1 1 0 1 1-1.9 0 1 1 0 0 1 2 0Zm0-10.2a1 1 0 1 1-1.9 0 1 1 0 0 1 2 0Zm0-10.2a1 1 0 1 1-1.9 0 1 1 0 0 1 2 0Zm0-10.1a1 1 0 1 1-1.9 0 1 1 0 0 1 2 0Zm0-10.2a1 1 0 1 1-1.9 0 1 1 0 0 1 2 0Zm0-10.2a1 1 0 1 1-1.9 0 1 1 0 0 1 2 0Zm0-10.1a1 1 0 1 1-1.9 0 1 1 0 0 1 2 0Zm0-10.2a1 1 0 1 1-1.9 0 1 1 0 0 1 2 0Zm0-10.1a1 1 0 1 1-1.9 0 1 1 0 0 1 2 0Zm0-10.2a1 1 0 1 1-1.9 0 1 1 0 0 1 2 0Zm0-10.2a1 1 0 1 1-1.9 0 1 1 0 0 1 2 0Zm0-10.1a1 1 0 1 1-1.9 0 1 1 0 0 1 2 0Zm0-10.2a1 1 0 1 1-1.9 0 1 1 0 0 1 2 0Zm0-10.2a1 1 0 1 1-1.9 0 1 1 0 0 1 2 0Zm0-10.1a1 1 0 1 1-1.9 0 1 1 0 0 1 2 0Zm0-10.2a1 1 0 1 1-1.9 0 1 1 0 0 1 2 0Zm0-10.2a1 1 0 1 1-1.9 0 1 1 0 0 1 2 0Zm0-10.1a1 1 0 1 1-1.9 0 1 1 0 0 1 2 0Zm0-10.2a1 1 0 1 1-1.9 0 1 1 0 0 1 2 0Zm0-10.1a1 1 0 1 1-1.9 0 1 1 0 0 1 2 0Zm0-10.2a1 1 0 1 1-1.9 0 1 1 0 0 1 2 0Zm0-10.2a1 1 0 1 1-1.9 0 1 1 0 0 1 2 0Zm0-10.1a1 1 0 1 1-1.9 0 1 1 0 0 1 2 0Zm0-10.2a1 1 0 1 1-1.9 0 1 1 0 0 1 2 0Zm0-10.2a1 1 0 1 1-1.9 0 1 1 0 0 1 2 0Z" class="cls-2"/>
    <path id="reuse-19" d="M102.3 250a1 1 0 1 1-2 0 1 1 0 0 1 2 0Zm0-10.2a1 1 0 1 1-2 0 1 1 0 0 1 2 0Zm0-10.2a1 1 0 1 1-2 0 1 1 0 0 1 2 0Zm0-10.1a1 1 0 1 1-2 0 1 1 0 0 1 2 0Zm0-10.2a1 1 0 1 1-2 0 1 1 0 0 1 2 0Zm0-10.2a1 1 0 1 1-2 0 1 1 0 0 1 2 0Zm0-10.1a1 1 0 1 1-2 0 1 1 0 0 1 2 0Zm0-10.2a1 1 0 1 1-2 0 1 1 0 0 1 2 0Zm0-10.1a1 1 0 1 1-2 0 1 1 0 0 1 2 0Zm0-10.2a1 1 0 1 1-2 0 1 1 0 0 1 2 0Zm0-10.2a1 1 0 1 1-2 0 1 1 0 0 1 2 0Zm0-10.1a1 1 0 1 1-2 0 1 1 0 0 1 2 0Zm0-10.2a1 1 0 1 1-2 0 1 1 0 0 1 2 0Zm0-10.2a1 1 0 1 1-2 0 1 1 0 0 1 2 0Zm0-10.1a1 1 0 1 1-2 0 1 1 0 0 1 2 0Zm0-10.2a1 1 0 1 1-2 0 1 1 0 0 1 2 0Zm0-10.2a1 1 0 1 1-2 0 1 1 0 0 1 2 0Zm0-10.1a1 1 0 1 1-2 0 1 1 0 0 1 2 0Zm0-10.2a1 1 0 1 1-2 0 1 1 0 0 1 2 0Zm0-10.1a1 1 0 1 1-2 0 1 1 0 0 1 2 0Zm0-10.2a1 1 0 1 1-2 0 1 1 0 0 1 2 0Zm0-10.2a1 1 0 1 1-2 0 1 1 0 0 1 2 0Zm0-10.1a1 1 0 1 1-2 0 1 1 0 0 1 2 0Zm0-10.2a1 1 0 1 1-2 0 1 1 0 0 1 2 0Zm0-10.2a1 1 0 1 1-2 0 1 1 0 0 1 2 0Z" class="cls-2"/>
    <path id="reuse-20" d="M94.6 255a1 1 0 1 1-1.9 0 1 1 0 0 1 2 0Zm0-10.1a1 1 0 1 1-1.9 0 1 1 0 0 1 2 0Zm0-10.2a1 1 0 1 1-1.9 0 1 1 0 0 1 2 0Zm0-10.1a1 1 0 1 1-1.9 0 1 1 0 0 1 2 0Zm0-10.2a1 1 0 1 1-1.9 0 1 1 0 0 1 2 0Zm0-10.2a1 1 0 1 1-1.9 0 1 1 0 0 1 2 0Zm0-10.2a1 1 0 1 1-1.9 0 1 1 0 0 1 2 0Zm0-10.1a1 1 0 1 1-1.9 0 1 1 0 0 1 2 0Zm0-10.2a1 1 0 1 1-1.9 0 1 1 0 0 1 2 0Zm0-10.1a1 1 0 1 1-1.9 0 1 1 0 0 1 2 0Zm0-10.2a1 1 0 1 1-1.9 0 1 1 0 0 1 2 0Zm0-10.1a1 1 0 1 1-1.9 0 1 1 0 0 1 2 0Zm0-10.3a1 1 0 1 1-1.9 0 1 1 0 0 1 2 0Zm0-10a1 1 0 1 1-1.9 0 1 1 0 0 1 2 0Zm0-10.2a1 1 0 1 1-1.9 0 1 1 0 0 1 2 0Zm0-10.2a1 1 0 1 1-1.9 0 1 1 0 0 1 2 0Zm0-10.2a1 1 0 1 1-1.9 0 1 1 0 0 1 2 0Zm0-10.1a1 1 0 1 1-1.9 0 1 1 0 0 1 2 0Zm0-10.2a1 1 0 1 1-1.9 0 1 1 0 0 1 2 0Zm0-10.1a1 1 0 1 1-1.9 0 1 1 0 0 1 2 0Zm0-10.2a1 1 0 1 1-1.9 0 1 1 0 0 1 2 0Zm0-10.2a1 1 0 1 1-1.9 0 1 1 0 0 1 2 0Zm0-10.2a1 1 0 1 1-1.9 0 1 1 0 0 1 2 0Zm0-10.1a1 1 0 1 1-1.9 0 1 1 0 0 1 2 0Zm0-10.2a1 1 0 1 1-1.9 0 1 1 0 0 1 2 0Zm0-10.1a1 1 0 1 1-1-1c.6 0 1 .4 1 1Z" class="cls-2"/>
    <path id="reuse-21" d="M79.4 255a1 1 0 1 1-2 0 1 1 0 0 1 2 0Zm0-10.1a1 1 0 1 1-2 0 1 1 0 0 1 2 0Zm0-10.2a1 1 0 1 1-2 0 1 1 0 0 1 2 0Zm0-10.1a1 1 0 1 1-2 0 1 1 0 0 1 2 0Zm0-10.2a1 1 0 1 1-2 0 1 1 0 0 1 2 0Zm0-10.2a1 1 0 1 1-2 0 1 1 0 0 1 2 0Zm0-10.2a1 1 0 1 1-2 0 1 1 0 0 1 2 0Zm0-10.1a1 1 0 1 1-2 0 1 1 0 0 1 2 0Zm0-10.2a1 1 0 1 1-2 0 1 1 0 0 1 2 0Zm0-10.1a1 1 0 1 1-2 0 1 1 0 0 1 2 0Zm0-10.2a1 1 0 1 1-2 0 1 1 0 0 1 2 0Zm0-10.1a1 1 0 1 1-2 0 1 1 0 0 1 2 0Zm0-10.3a1 1 0 1 1-2 0 1 1 0 0 1 2 0Zm0-10a1 1 0 1 1-2 0 1 1 0 0 1 2 0Zm0-10.2a1 1 0 1 1-2 0 1 1 0 0 1 2 0Zm0-10.2a1 1 0 1 1-2 0 1 1 0 0 1 2 0Zm0-10.2a1 1 0 1 1-2 0 1 1 0 0 1 2 0Zm0-10.1a1 1 0 1 1-2 0 1 1 0 0 1 2 0Zm0-10.2a1 1 0 1 1-2 0 1 1 0 0 1 2 0Zm0-10.1a1 1 0 1 1-2 0 1 1 0 0 1 2 0Zm0-10.2a1 1 0 1 1-2 0 1 1 0 0 1 2 0Zm0-10.2a1 1 0 1 1-2 0 1 1 0 0 1 2 0Zm0-10.2a1 1 0 1 1-2 0 1 1 0 0 1 2 0Zm0-10.1a1 1 0 1 1-2 0 1 1 0 0 1 2 0Zm0-10.2a1 1 0 1 1-2 0 1 1 0 0 1 2 0Zm0-10.1a1 1 0 1 1-2 0 1 1 0 0 1 2 0Z" class="cls-2"/>
    <path id="reuse-22" d="M87 250a1 1 0 1 1-1.9 0 1 1 0 0 1 2 0Zm0-10.2a1 1 0 1 1-1.9 0 1 1 0 0 1 2 0Zm0-10.2a1 1 0 1 1-1.9 0 1 1 0 0 1 2 0Zm0-10.1a1 1 0 1 1-1.9 0 1 1 0 0 1 2 0Zm0-10.2a1 1 0 1 1-1.9 0 1 1 0 0 1 2 0Zm0-10.2a1 1 0 1 1-1.9 0 1 1 0 0 1 2 0Zm0-10.1a1 1 0 1 1-1.9 0 1 1 0 0 1 2 0Zm0-10.2a1 1 0 1 1-1.9 0 1 1 0 0 1 2 0Zm0-10.1a1 1 0 1 1-1.9 0 1 1 0 0 1 2 0Zm0-10.2a1 1 0 1 1-1.9 0 1 1 0 0 1 2 0Zm0-10.2a1 1 0 1 1-1.9 0 1 1 0 0 1 2 0Zm0-10.1a1 1 0 1 1-1.9 0 1 1 0 0 1 2 0Zm0-10.2a1 1 0 1 1-1.9 0 1 1 0 0 1 2 0Zm0-10.2a1 1 0 1 1-1.9 0 1 1 0 0 1 2 0Zm0-10.1a1 1 0 1 1-1.9 0 1 1 0 0 1 2 0Zm0-10.2a1 1 0 1 1-1.9 0 1 1 0 0 1 2 0Zm0-10.2a1 1 0 1 1-1.9 0 1 1 0 0 1 2 0Zm0-10.1a1 1 0 1 1-1.9 0 1 1 0 0 1 2 0ZM87 67a1 1 0 1 1-1.9 0 1 1 0 0 1 2 0Zm0-10.1a1 1 0 1 1-1.9 0 1 1 0 0 1 2 0Zm0-10.2a1 1 0 1 1-1.9 0 1 1 0 0 1 2 0Zm0-10.2a1 1 0 1 1-1.9 0 1 1 0 0 1 2 0Zm0-10.1a1 1 0 1 1-1.9 0 1 1 0 0 1 2 0Zm0-10.2a1 1 0 1 1-1.9 0 1 1 0 0 1 2 0ZM87 6a1 1 0 1 1-1.9 0 1 1 0 0 1 2 0Z" class="cls-2"/>
    <path id="reuse-23" d="M71.8 250a1 1 0 1 1-2 0 1 1 0 0 1 2 0Zm0-10.2a1 1 0 1 1-2 0 1 1 0 0 1 2 0Zm0-10.2a1 1 0 1 1-2 0 1 1 0 0 1 2 0Zm0-10.1a1 1 0 1 1-2 0 1 1 0 0 1 2 0Zm0-10.2a1 1 0 1 1-2 0 1 1 0 0 1 2 0Zm0-10.2a1 1 0 1 1-2 0 1 1 0 0 1 2 0Zm0-10.1a1 1 0 1 1-2 0 1 1 0 0 1 2 0Zm0-10.2a1 1 0 1 1-2 0 1 1 0 0 1 2 0Zm0-10.1a1 1 0 1 1-2 0 1 1 0 0 1 2 0Zm0-10.2a1 1 0 1 1-2 0 1 1 0 0 1 2 0Zm0-10.2a1 1 0 1 1-2 0 1 1 0 0 1 2 0Zm0-10.1a1 1 0 1 1-2 0 1 1 0 0 1 2 0Zm0-10.2a1 1 0 1 1-2 0 1 1 0 0 1 2 0Zm0-10.2a1 1 0 1 1-2 0 1 1 0 0 1 2 0Zm0-10.1a1 1 0 1 1-2 0 1 1 0 0 1 2 0Zm0-10.2a1 1 0 1 1-2 0 1 1 0 0 1 2 0Zm0-10.2a1 1 0 1 1-2 0 1 1 0 0 1 2 0Zm0-10.1a1 1 0 1 1-2 0 1 1 0 0 1 2 0Zm0-10.2a1 1 0 1 1-2 0 1 1 0 0 1 2 0Zm0-10.1a1 1 0 1 1-2 0 1 1 0 0 1 2 0Zm0-10.2a1 1 0 1 1-2 0 1 1 0 0 1 2 0Zm0-10.2a1 1 0 1 1-2 0 1 1 0 0 1 2 0Zm0-10.1a1 1 0 1 1-2 0 1 1 0 0 1 2 0Zm0-10.2a1 1 0 1 1-2 0 1 1 0 0 1 2 0Zm0-10.2a1 1 0 1 1-2 0 1 1 0 0 1 2 0Z" class="cls-2"/>
    <path id="reuse-24" d="M64.1 255a1 1 0 1 1-1.9 0 1 1 0 0 1 2 0Zm0-10.1a1 1 0 1 1-1.9 0 1 1 0 0 1 2 0Zm0-10.2a1 1 0 1 1-1.9 0 1 1 0 0 1 2 0Zm0-10.1a1 1 0 1 1-1.9 0 1 1 0 0 1 2 0Zm0-10.2a1 1 0 1 1-1.9 0 1 1 0 0 1 2 0Zm0-10.2a1 1 0 1 1-1.9 0 1 1 0 0 1 2 0Zm0-10.2a1 1 0 1 1-1.9 0 1 1 0 0 1 2 0Zm0-10.1a1 1 0 1 1-1.9 0 1 1 0 0 1 2 0Zm0-10.2a1 1 0 1 1-1.9 0 1 1 0 0 1 2 0Zm0-10.1a1 1 0 1 1-1.9 0 1 1 0 0 1 2 0Zm0-10.2a1 1 0 1 1-1.9 0 1 1 0 0 1 2 0Zm0-10.1a1 1 0 1 1-1.9 0 1 1 0 0 1 2 0Zm0-10.3a1 1 0 1 1-1.9 0 1 1 0 0 1 2 0Zm0-10a1 1 0 1 1-1.9 0 1 1 0 0 1 2 0Zm0-10.2a1 1 0 1 1-1.9 0 1 1 0 0 1 2 0Zm0-10.2a1 1 0 1 1-1.9 0 1 1 0 0 1 2 0Zm0-10.2a1 1 0 1 1-1.9 0 1 1 0 0 1 2 0Zm0-10.1a1 1 0 1 1-1.9 0 1 1 0 0 1 2 0Zm0-10.2a1 1 0 1 1-1.9 0 1 1 0 0 1 2 0Zm0-10.1a1 1 0 1 1-1.9 0 1 1 0 0 1 2 0Zm0-10.2a1 1 0 1 1-1.9 0 1 1 0 0 1 2 0Zm0-10.2a1 1 0 1 1-1.9 0 1 1 0 0 1 2 0Zm0-10.2a1 1 0 1 1-1.9 0 1 1 0 0 1 2 0Zm0-10.1a1 1 0 1 1-1.9 0 1 1 0 0 1 2 0Zm0-10.2a1 1 0 1 1-1.9 0 1 1 0 0 1 2 0Zm0-10.1a1 1 0 1 1-1-1c.6 0 1 .4 1 1Z" class="cls-2"/>
    <path id="reuse-25" d="M48.9 255a1 1 0 1 1-2 0 1 1 0 0 1 2 0Zm0-10.1a1 1 0 1 1-2 0 1 1 0 0 1 2 0Zm0-10.2a1 1 0 1 1-2 0 1 1 0 0 1 2 0Zm0-10.1a1 1 0 1 1-2 0 1 1 0 0 1 2 0Zm0-10.2a1 1 0 1 1-2 0 1 1 0 0 1 2 0Zm0-10.2a1 1 0 1 1-2 0 1 1 0 0 1 2 0Zm0-10.2a1 1 0 1 1-2 0 1 1 0 0 1 2 0Zm0-10.1a1 1 0 1 1-2 0 1 1 0 0 1 2 0Zm0-10.2a1 1 0 1 1-2 0 1 1 0 0 1 2 0Zm0-10.1a1 1 0 1 1-2 0 1 1 0 0 1 2 0Zm0-10.2a1 1 0 1 1-2 0 1 1 0 0 1 2 0Zm0-10.1a1 1 0 1 1-2 0 1 1 0 0 1 2 0Zm0-10.3a1 1 0 1 1-2 0 1 1 0 0 1 2 0Zm0-10a1 1 0 1 1-2 0 1 1 0 0 1 2 0Zm0-10.2a1 1 0 1 1-2 0 1 1 0 0 1 2 0Zm0-10.2a1 1 0 1 1-2 0 1 1 0 0 1 2 0Zm0-10.2a1 1 0 1 1-2 0 1 1 0 0 1 2 0Zm0-10.1a1 1 0 1 1-2 0 1 1 0 0 1 2 0Zm0-10.2a1 1 0 1 1-2 0 1 1 0 0 1 2 0Zm0-10.1a1 1 0 1 1-2 0 1 1 0 0 1 2 0Zm0-10.2a1 1 0 1 1-2 0 1 1 0 0 1 2 0Zm0-10.2a1 1 0 1 1-2 0 1 1 0 0 1 2 0Zm0-10.2a1 1 0 1 1-2 0 1 1 0 0 1 2 0Zm0-10.1a1 1 0 1 1-2 0 1 1 0 0 1 2 0Zm0-10.2a1 1 0 1 1-2 0 1 1 0 0 1 2 0Zm0-10.1a1 1 0 1 1-2 0 1 1 0 0 1 2 0Z" class="cls-2"/>
    <path id="reuse-26" d="M56.5 250a1 1 0 1 1-1.9 0 1 1 0 0 1 2 0Zm0-10.2a1 1 0 1 1-1.9 0 1 1 0 0 1 2 0Zm0-10.2a1 1 0 1 1-1.9 0 1 1 0 0 1 2 0Zm0-10.1a1 1 0 1 1-1.9 0 1 1 0 0 1 2 0Zm0-10.2a1 1 0 1 1-1.9 0 1 1 0 0 1 2 0Zm0-10.2a1 1 0 1 1-1.9 0 1 1 0 0 1 2 0Zm0-10.1a1 1 0 1 1-1.9 0 1 1 0 0 1 2 0Zm0-10.2a1 1 0 1 1-1.9 0 1 1 0 0 1 2 0Zm0-10.1a1 1 0 1 1-1.9 0 1 1 0 0 1 2 0Zm0-10.2a1 1 0 1 1-1.9 0 1 1 0 0 1 2 0Zm0-10.2a1 1 0 1 1-1.9 0 1 1 0 0 1 2 0Zm0-10.1a1 1 0 1 1-1.9 0 1 1 0 0 1 2 0Zm0-10.2a1 1 0 1 1-1.9 0 1 1 0 0 1 2 0Zm0-10.2a1 1 0 1 1-1.9 0 1 1 0 0 1 2 0Zm0-10.1a1 1 0 1 1-1.9 0 1 1 0 0 1 2 0Zm0-10.2a1 1 0 1 1-1.9 0 1 1 0 0 1 2 0Zm0-10.2a1 1 0 1 1-1.9 0 1 1 0 0 1 2 0Zm0-10.1a1 1 0 1 1-1.9 0 1 1 0 0 1 2 0Zm0-10.2a1 1 0 1 1-1.9 0 1 1 0 0 1 2 0Zm0-10.1a1 1 0 1 1-1.9 0 1 1 0 0 1 2 0Zm0-10.2a1 1 0 1 1-1.9 0 1 1 0 0 1 2 0Zm0-10.2a1 1 0 1 1-1.9 0 1 1 0 0 1 2 0Zm0-10.1a1 1 0 1 1-1.9 0 1 1 0 0 1 2 0Zm0-10.2a1 1 0 1 1-1.9 0 1 1 0 0 1 2 0Zm0-10.2a1 1 0 1 1-1.9 0 1 1 0 0 1 2 0Z" class="cls-2"/>
    <path id="reuse-27" d="M41.3 250a1 1 0 1 1-2 0 1 1 0 0 1 2 0Zm0-10.2a1 1 0 1 1-2 0 1 1 0 0 1 2 0Zm0-10.2a1 1 0 1 1-2 0 1 1 0 0 1 2 0Zm0-10.1a1 1 0 1 1-2 0 1 1 0 0 1 2 0Zm0-10.2a1 1 0 1 1-2 0 1 1 0 0 1 2 0Zm0-10.2a1 1 0 1 1-2 0 1 1 0 0 1 2 0Zm0-10.1a1 1 0 1 1-2 0 1 1 0 0 1 2 0Zm0-10.2a1 1 0 1 1-2 0 1 1 0 0 1 2 0Zm0-10.1a1 1 0 1 1-2 0 1 1 0 0 1 2 0Zm0-10.2a1 1 0 1 1-2 0 1 1 0 0 1 2 0Zm0-10.2a1 1 0 1 1-2 0 1 1 0 0 1 2 0Zm0-10.1a1 1 0 1 1-2 0 1 1 0 0 1 2 0Zm0-10.2a1 1 0 1 1-2 0 1 1 0 0 1 2 0Zm0-10.2a1 1 0 1 1-2 0 1 1 0 0 1 2 0Zm0-10.1a1 1 0 1 1-2 0 1 1 0 0 1 2 0Zm0-10.2a1 1 0 1 1-2 0 1 1 0 0 1 2 0Zm0-10.2a1 1 0 1 1-2 0 1 1 0 0 1 2 0Zm0-10.1a1 1 0 1 1-2 0 1 1 0 0 1 2 0Zm0-10.2a1 1 0 1 1-2 0 1 1 0 0 1 2 0Zm0-10.1a1 1 0 1 1-2 0 1 1 0 0 1 2 0Zm0-10.2a1 1 0 1 1-2 0 1 1 0 0 1 2 0Zm0-10.2a1 1 0 1 1-2 0 1 1 0 0 1 2 0Zm0-10.1a1 1 0 1 1-2 0 1 1 0 0 1 2 0Zm0-10.2a1 1 0 1 1-2 0 1 1 0 0 1 2 0Zm0-10.2a1 1 0 1 1-2 0 1 1 0 0 1 2 0Z" class="cls-2"/>
    <path id="reuse-28" d="M33.6 255a1 1 0 1 1-1.9 0 1 1 0 0 1 2 0Zm0-10.1a1 1 0 1 1-1.9 0 1 1 0 0 1 2 0Zm0-10.2a1 1 0 1 1-1.9 0 1 1 0 0 1 2 0Zm0-10.1a1 1 0 1 1-1.9 0 1 1 0 0 1 2 0Zm0-10.2a1 1 0 1 1-1.9 0 1 1 0 0 1 2 0Zm0-10.2a1 1 0 1 1-1.9 0 1 1 0 0 1 2 0Zm0-10.2a1 1 0 1 1-1.9 0 1 1 0 0 1 2 0Zm0-10.1a1 1 0 1 1-1.9 0 1 1 0 0 1 2 0Zm0-10.2a1 1 0 1 1-1.9 0 1 1 0 0 1 2 0Zm0-10.1a1 1 0 1 1-1.9 0 1 1 0 0 1 2 0Zm0-10.2a1 1 0 1 1-1.9 0 1 1 0 0 1 2 0Zm0-10.1a1 1 0 1 1-1.9 0 1 1 0 0 1 2 0Zm0-10.3a1 1 0 1 1-1.9 0 1 1 0 0 1 2 0Zm0-10a1 1 0 1 1-1.9 0 1 1 0 0 1 2 0Zm0-10.2a1 1 0 1 1-1.9 0 1 1 0 0 1 2 0Zm0-10.2a1 1 0 1 1-1.9 0 1 1 0 0 1 2 0Zm0-10.2a1 1 0 1 1-1.9 0 1 1 0 0 1 2 0Zm0-10.1a1 1 0 1 1-1.9 0 1 1 0 0 1 2 0Zm0-10.2a1 1 0 1 1-1.9 0 1 1 0 0 1 2 0Zm0-10.1a1 1 0 1 1-1.9 0 1 1 0 0 1 2 0Zm0-10.2a1 1 0 1 1-1.9 0 1 1 0 0 1 2 0Zm0-10.2a1 1 0 1 1-1.9 0 1 1 0 0 1 2 0Zm0-10.2a1 1 0 1 1-1.9 0 1 1 0 0 1 2 0Zm0-10.1a1 1 0 1 1-1.9 0 1 1 0 0 1 2 0Zm0-10.2a1 1 0 1 1-1.9 0 1 1 0 0 1 2 0Zm0-10.1a1 1 0 1 1-1.9 0 1 1 0 0 1 2 0Z" class="cls-2"/>
    <path id="reuse-29" d="M18.4 255a1 1 0 1 1-2 0 1 1 0 0 1 2 0Zm0-10.1a1 1 0 1 1-2 0 1 1 0 0 1 2 0Zm0-10.2a1 1 0 1 1-2 0 1 1 0 0 1 2 0Zm0-10.1a1 1 0 1 1-2 0 1 1 0 0 1 2 0Zm0-10.2a1 1 0 1 1-2 0 1 1 0 0 1 2 0Zm0-10.2a1 1 0 1 1-2 0 1 1 0 0 1 2 0Zm0-10.2a1 1 0 1 1-2 0 1 1 0 0 1 2 0Zm0-10.1a1 1 0 1 1-2 0 1 1 0 0 1 2 0Zm0-10.2a1 1 0 1 1-2 0 1 1 0 0 1 2 0Zm0-10.1a1 1 0 1 1-2 0 1 1 0 0 1 2 0Zm0-10.2a1 1 0 1 1-2 0 1 1 0 0 1 2 0Zm0-10.1a1 1 0 1 1-2 0 1 1 0 0 1 2 0Zm0-10.3a1 1 0 1 1-2 0 1 1 0 0 1 2 0Zm0-10a1 1 0 1 1-2 0 1 1 0 0 1 2 0Zm0-10.2a1 1 0 1 1-2 0 1 1 0 0 1 2 0Zm0-10.2a1 1 0 1 1-2 0 1 1 0 0 1 2 0Zm0-10.2a1 1 0 1 1-2 0 1 1 0 0 1 2 0Zm0-10.1a1 1 0 1 1-2 0 1 1 0 0 1 2 0Zm0-10.2a1 1 0 1 1-2 0 1 1 0 0 1 2 0Zm0-10.1a1 1 0 1 1-2 0 1 1 0 0 1 2 0Zm0-10.2a1 1 0 1 1-2 0 1 1 0 0 1 2 0Zm0-10.2a1 1 0 1 1-2 0 1 1 0 0 1 2 0Zm0-10.2a1 1 0 1 1-2 0 1 1 0 0 1 2 0Zm0-10.1a1 1 0 1 1-2 0 1 1 0 0 1 2 0Zm0-10.2a1 1 0 1 1-2 0 1 1 0 0 1 2 0Zm0-10.1a1 1 0 1 1-2 0 1 1 0 0 1 2 0Z" class="cls-2"/>
    <path id="reuse-30" d="M26 250a1 1 0 1 1-1.9 0 1 1 0 0 1 2 0Zm0-10.2a1 1 0 1 1-1.9 0 1 1 0 0 1 2 0Zm0-10.2a1 1 0 1 1-1.9 0 1 1 0 0 1 2 0Zm0-10.1a1 1 0 1 1-1.9 0 1 1 0 0 1 2 0Zm0-10.2a1 1 0 1 1-1.9 0 1 1 0 0 1 2 0Zm0-10.2a1 1 0 1 1-1.9 0 1 1 0 0 1 2 0Zm0-10.1a1 1 0 1 1-1.9 0 1 1 0 0 1 2 0Zm0-10.2a1 1 0 1 1-1.9 0 1 1 0 0 1 2 0Zm0-10.1a1 1 0 1 1-1.9 0 1 1 0 0 1 2 0Zm0-10.2a1 1 0 1 1-1.9 0 1 1 0 0 1 2 0Zm0-10.2a1 1 0 1 1-1.9 0 1 1 0 0 1 2 0Zm0-10.1a1 1 0 1 1-1.9 0 1 1 0 0 1 2 0Zm0-10.2a1 1 0 1 1-1.9 0 1 1 0 0 1 2 0Zm0-10.2a1 1 0 1 1-1.9 0 1 1 0 0 1 2 0Zm0-10.1a1 1 0 1 1-1.9 0 1 1 0 0 1 2 0Zm0-10.2a1 1 0 1 1-1.9 0 1 1 0 0 1 2 0Zm0-10.2a1 1 0 1 1-1.9 0 1 1 0 0 1 2 0Zm0-10.1a1 1 0 1 1-1.9 0 1 1 0 0 1 2 0ZM26 67a1 1 0 1 1-1.9 0 1 1 0 0 1 2 0Zm0-10.1a1 1 0 1 1-1.9 0 1 1 0 0 1 2 0Zm0-10.2a1 1 0 1 1-1.9 0 1 1 0 0 1 2 0Zm0-10.2a1 1 0 1 1-1.9 0 1 1 0 0 1 2 0Zm0-10.1a1 1 0 1 1-1.9 0 1 1 0 0 1 2 0Zm0-10.2a1 1 0 1 1-1.9 0 1 1 0 0 1 2 0ZM26 6a1 1 0 1 1-1.9 0 1 1 0 0 1 2 0Z" class="cls-2"/>
    <path id="reuse-31" d="M10.8 250a1 1 0 1 1-2 0 1 1 0 0 1 2 0Zm0-10.2a1 1 0 1 1-2 0 1 1 0 0 1 2 0Zm0-10.2a1 1 0 1 1-2 0 1 1 0 0 1 2 0Zm0-10.1a1 1 0 1 1-2 0 1 1 0 0 1 2 0Zm0-10.2a1 1 0 1 1-2 0 1 1 0 0 1 2 0Zm0-10.2a1 1 0 1 1-2 0 1 1 0 0 1 2 0Zm0-10.1a1 1 0 1 1-2 0 1 1 0 0 1 2 0Zm0-10.2a1 1 0 1 1-2 0 1 1 0 0 1 2 0Zm0-10.1a1 1 0 1 1-2 0 1 1 0 0 1 2 0Zm0-10.2a1 1 0 1 1-2 0 1 1 0 0 1 2 0Zm0-10.2a1 1 0 1 1-2 0 1 1 0 0 1 2 0Zm0-10.1a1 1 0 1 1-2 0 1 1 0 0 1 2 0Zm0-10.2a1 1 0 1 1-2 0 1 1 0 0 1 2 0Zm0-10.2a1 1 0 1 1-2 0 1 1 0 0 1 2 0Zm0-10.1a1 1 0 1 1-2 0 1 1 0 0 1 2 0Zm0-10.2a1 1 0 1 1-2 0 1 1 0 0 1 2 0Zm0-10.2a1 1 0 1 1-2 0 1 1 0 0 1 2 0Zm0-10.1a1 1 0 1 1-2 0 1 1 0 0 1 2 0Zm0-10.2a1 1 0 1 1-2 0 1 1 0 0 1 2 0Zm0-10.1a1 1 0 1 1-2 0 1 1 0 0 1 2 0Zm0-10.2a1 1 0 1 1-2 0 1 1 0 0 1 2 0Zm0-10.2a1 1 0 1 1-2 0 1 1 0 0 1 2 0Zm0-10.1a1 1 0 1 1-2 0 1 1 0 0 1 2 0Zm0-10.2a1 1 0 1 1-2 0 1 1 0 0 1 2 0Zm0-10.2a1 1 0 1 1-2 0 1 1 0 0 1 2 0Z" class="cls-2"/>
  </defs>
  <defs>
    <linearGradient id="Sfumatura_senza_nome_52" x1="80.81" x2="80.81" y1="83.36" y2="49.34" gradientTransform="translate(.6 1.2)" gradientUnits="userSpaceOnUse">
      <stop offset="0" stop-color="#4c652c"/>
      <stop offset=".09" stop-color="#63813a"/>
      <stop offset=".16" stop-color="#8fa443"/>
      <stop offset=".22" stop-color="#acbc49"/>
      <stop offset=".26" stop-color="#b7c54c"/>
      <stop offset=".33" stop-color="#c9c645"/>
      <stop offset=".56" stop-color="#fccc35"/>
      <stop offset=".62" stop-color="#fccc38"/>
      <stop offset=".68" stop-color="#fccf42"/>
      <stop offset=".74" stop-color="#fcd354"/>
      <stop offset=".79" stop-color="#fcd86d"/>
      <stop offset=".84" stop-color="#fddf8d"/>
      <stop offset=".89" stop-color="#fde8b3"/>
      <stop offset=".91" stop-color="#feedc8"/>
    </linearGradient>
    <linearGradient xlink:href="#Sfumatura_senza_nome_52" id="Sfumatura_senza_nome_52-2" x1="108.77" x2="108.77" y2="49.34"/>
    <linearGradient xlink:href="#Sfumatura_senza_nome_52" id="Sfumatura_senza_nome_52-3" x1="128.25" x2="128.25" y2="49.34"/>
    <linearGradient xlink:href="#Sfumatura_senza_nome_52" id="Sfumatura_senza_nome_52-4" x1="162.97" x2="162.97" y1="83.36" y2="49.34"/>
    <linearGradient xlink:href="#Sfumatura_senza_nome_52" id="Sfumatura_senza_nome_52-5" x1="193.4" x2="193.4" y2="49.34"/>
    <linearGradient id="Sfumatura_senza_nome_171" x1="66.16" x2="66.16" y1="184.28" y2="94.08" gradientTransform="translate(1.6 3.3)" gradientUnits="userSpaceOnUse">
      <stop offset="0" stop-color="#4c652c"/>
      <stop offset=".08" stop-color="#63813a"/>
      <stop offset=".32" stop-color="#b7c54c"/>
      <stop offset=".39" stop-color="#c9c43c"/>
      <stop offset=".59" stop-color="#fcc412"/>
      <stop offset=".62" stop-color="#fcc51a"/>
      <stop offset=".68" stop-color="#fccb32"/>
      <stop offset=".75" stop-color="#fcd459"/>
      <stop offset=".83" stop-color="#fddf8e"/>
      <stop offset=".91" stop-color="#feedc8"/>
    </linearGradient>
    <linearGradient xlink:href="#Sfumatura_senza_nome_171" id="Sfumatura_senza_nome_171-2" x1="137.14" x2="137.14" y2="94.08"/>
    <linearGradient xlink:href="#Sfumatura_senza_nome_171" id="Sfumatura_senza_nome_171-3" x1="201.72" x2="201.72" y2="94.08"/>
    <style>
      .cls-2{fill:#fff}.cls-3{fill:#f67e1b}.cls-9{mix-blend-mode:multiply;opacity:.4}
    </style>
  </defs>
  <g style="isolation:isolate">
    <g id="OBJECTS">
      <path fill="#7608ff" d="M0 0h256v256H0z"/>
      <path d="M205.2 59a4 4 0 0 0-.4-1.7L204 56l-.2-.2a37.3 37.3 0 0 0-3.7-2.8 5.6 5.6 0 0 0-2.8-.6 3 3 0 0 0-2.3 1.3l-1.6 1.9-.6 1-3.7 6.6-.3-1-1.9-5.2c-.6-1-1-1.7-1.5-2.2a5.2 5.2 0 0 0-2.8-1.5l-2.3-.3h-.5l-2.3.1h-.3a4 4 0 0 0-2.3 1.3l-.6-.2a61.3 61.3 0 0 0-5.8-1.4h-.5c-1 .1-2 .5-2.7 1.2a7 7 0 0 0-.9.9v-.1l-1.6 2-1 1.4-1.5 2.9-1.7 3.2-.3.5-.2-1.6-.2-1.6V61l-.1-.4-.3-1.4a5.6 5.6 0 0 0-2.2-3.1 8 8 0 0 0-2-1 37.5 37.5 0 0 0-7.8-1.8c-.9 0-1.5.1-2.1.4l-1.1 1v-.1l-1.6 2c-.4.5-.8 1.2-1 2v.2a121.6 121.6 0 0 0-2 14.4 316.2 316.2 0 0 0-1 13.4c0 1 .2 2 .7 2.7a5 5 0 0 0 2.2 1.8 13.7 13.7 0 0 0 3.9 1.3l1.2.1a3 3 0 0 0 1.6-.4l.7-.6 1.7-2-.2.1c.5-.4.8-1 1-1.8v-1c.2.4.4.8.7 1 .3.5.7.8 1.2 1l1 .5a24.7 24.7 0 0 0 4 1h.3l1.5-.5.7-.7 1.6-1.9c0 .7.1 1.3.4 1.9.4.8 1.1 1.5 2.1 2l2 .7a27.6 27.6 0 0 0 3.1.7 3 3 0 0 0 2.4-1.2l1.7-2a5 5 0 0 0 .9-1.7A120.7 120.7 0 0 1 175 80l1.3-5 1-3.2a709.3 709.3 0 0 0 2.4 6.7 79 79 0 0 0-1 7.8v.2c0 1.1 0 2 .4 2.7a5 5 0 0 0 2.3 2 30.5 30.5 0 0 0 5.4 1.5c.5 0 .9 0 1.3-.2.3-.2.7-.4 1-.8l1.6-2v.1c.3-.4.6-1 .8-1.8l.8-4.1 1-4.2a449.6 449.6 0 0 0 9.2-14.2 36 36 0 0 0 2-3.8l.5-1.2a4 4 0 0 0 .2-1.6Zm-41-3.8-.2.2.1-.2Zm-22-.3-.2.1.1-.1Zm-.3.4-.1.2v-.2Zm-.3.6v.1-.1ZM148 90Zm12.2-2.6h.1Zm30.2 2.7.2-.1-.2.1Zm-.6.4.3-.1-.3.1Zm.3-.2.2-.1-.2.1Zm4.7-36.2-.1.2V54Zm-57.9 16.4-.1-.2-.7-1.4a19.8 19.8 0 0 0-1.2-2.3 7 7 0 0 0-1.9-1.8 5 5 0 0 0-2.7-.7 62.4 62.4 0 0 0-10.2.7l1.2-4.3c.4-1.1.4-2 0-3-.2-.7-.9-1.4-1.9-2.1h-.1a24.6 24.6 0 0 0-5-2.4l-2-.3-1 .1a3 3 0 0 0-1.6 1l-1.6 2a5 5 0 0 0-1 1.9 174.8 174.8 0 0 0-2.6 11.5h-.2l.7-3.1a98.4 98.4 0 0 1 1.4-6.2c0-.6 0-1.2-.3-1.7-.2-.5-.5-1-1-1.4L104 56a23 23 0 0 0-7.3-2.8c-.5 0-.9 0-1.3.2a3 3 0 0 0-1.2 1l-1.6 1.9a5 5 0 0 0-1 2v.2l-.2 1.7-.4-.8a11.2 11.2 0 0 0-6.5-5.2 23.5 23.5 0 0 0-6-1.3c-1 0-1.9.2-2.9.5a9 9 0 0 0-3.8 1.9h-.1l-2.8 3 .2-.3-1.6 2a26.6 26.6 0 0 0-6 17c0 1.7 0 3.4.4 5s1 3 1.6 4.4c.5 1 1.2 1.8 2.1 2.5a13.2 13.2 0 0 0 5.7 2.8 27.8 27.8 0 0 0 4.9.6c1 0 2 0 2.8-.3a10 10 0 0 0 4-2 18 18 0 0 0 2-2l1.6-2c.7-.9 1.4-1.9 2-3l-.6 3a4 4 0 0 0 .5 3.2c.5.7 1.2 1.2 2 1.7l2.2.8a133.4 133.4 0 0 1 3.4.8 3 3 0 0 0 1.5-.4l.8-.7 1.6-2-.1.2c.4-.4.7-1 .9-1.7v-.2l.6-4 .3-1.5h.3c0 .3 0 .6-.2 1a69 69 0 0 0-.4 3c-.3 1.7.2 3.2 1.4 4.1.8.6 1.9 1.1 3.2 1.5a89.8 89.8 0 0 1 3 .6h.2c.7 0 1.3-.1 1.8-.4l.7-.6 1.6-2c.3-.3.6-.9.7-1.7l1.5-6.5.8-3a4.5 4.5 0 0 0 3.6.5c1.8-.4 3.7-.8 5.8-1l6.5-.6c.8 0 2-.2 2.8-1l1.6-2c.8-.9.8-2 .2-3.5Zm-60.5 10v-.2.1Zm-.8-4.5.6-3.3a28.4 28.4 0 0 1 2.3-5.5v1.3a26.4 26.4 0 0 1-.9 7.2 26.3 26.3 0 0 1-1.9 5.1l-.2-1.7V76Zm-7-17.4Zm16.9 28.6.2-.2-.2.2Zm24-33Zm-.3.5Zm-.2.4v.1Zm-15.2-.3.1-.1-.1.1Zm-.4 1v-.1.1Zm.2-.5v-.2.2ZM99.3 90Zm13.8-.4v-.1.1Zm-.4.3.1-.1-.1.1Zm.2-.1v-.1Z" class="cls-9"/>
      <path d="M207.1 56.4a4 4 0 0 0-.4-1.7l-.8-1.1-.2-.2a37.3 37.3 0 0 0-3.7-2.8 5.6 5.6 0 0 0-2.8-.6c-1 0-1.7.5-2.3 1.3v-.1l-1.6 2c-.2.3-.5.6-.6 1l-3.7 6.6-.3-1-1.9-5.2v-.2c-.6-1-1-1.7-1.5-2.2a5.2 5.2 0 0 0-2.8-1.6l-2.3-.2h-.5l-2.3.1h-.3a4 4 0 0 0-2.3 1.2l-.6-.1a61.3 61.3 0 0 0-5.8-1.4h-.5c-1 0-2 .5-2.7 1.2a7 7 0 0 0-.9.8l-1.6 2-1 1.4-1.5 2.9-1.7 3.1c0 .2-.2.4-.3.5l-.2-1.6-.2-1.6v-.5l-.1-.5-.3-1.3a5.6 5.6 0 0 0-2.2-3.1 8 8 0 0 0-2-1 37.5 37.5 0 0 0-7.9-1.8c-.8 0-1.4.1-2 .4-.4.2-.8.5-1.1 1v-.2l-1.6 2c-.4.6-.8 1.3-1 2.2v.1a121.6 121.6 0 0 0-2 14.3 316.2 316.2 0 0 0-1 13.5c0 1 .2 2 .7 2.7a5 5 0 0 0 2.2 1.8 13.7 13.7 0 0 0 3.9 1.3l1.2.1a3.2 3.2 0 0 0 2-.7l.3-.4 1.7-2-.2.2c.5-.4.8-1 1-1.8v-1l.7 1c.3.4.7.8 1.1 1l1.1.5a24.7 24.7 0 0 0 4 .9h.3c.5 0 1-.2 1.5-.5l.7-.6 1.6-2c0 .8.1 1.4.4 2a5 5 0 0 0 2.1 2l2 .7a27.6 27.6 0 0 0 3 .6 3 3 0 0 0 2.5-1l1.7-2a5 5 0 0 0 .8-1.8 120.7 120.7 0 0 1 2-7.5l1.3-5 1-3.3a709.3 709.3 0 0 0 2.4 6.8 79 79 0 0 0-1 7.8v.2c-.1 1 0 2 .4 2.6a5 5 0 0 0 2.2 2.1 30.5 30.5 0 0 0 5.5 1.5c.5 0 .9 0 1.2-.2l1-.8 1.7-2v.1c.3-.4.6-1 .8-1.8l.8-4.1c.2-1.3.6-2.7 1-4.2a449.6 449.6 0 0 0 9.2-14.3 36 36 0 0 0 2-3.7l.4-1.2a4 4 0 0 0 .3-1.6Zm-41-3.7-.2.2.1-.2Zm-22-.4-.2.2.1-.2Zm-.3.5-.1.2v-.2Zm-.3.5v.2-.2Zm6.4 34.2Zm12.2-2.6h.1Zm30.2 2.7.2-.2-.2.2Zm-.6.4.2-.1-.2.1Zm.3-.2.2-.1h-.2Zm4.7-36.2-.1.1v-.1ZM138.8 68l-.1-.2-.7-1.5a19.8 19.8 0 0 0-1.2-2.2 7 7 0 0 0-1.9-1.8 5 5 0 0 0-2.7-.7 62.4 62.4 0 0 0-10.3.7l1.3-4.3c.4-1.1.4-2.1 0-3-.3-.7-.9-1.4-1.9-2.1l-.1-.1a24.6 24.6 0 0 0-5-2.3l-2-.3h-1a3 3 0 0 0-1.6 1.1l-1.6 2a5 5 0 0 0-1 1.9 174.8 174.8 0 0 0-2.6 11.5h-.2l.7-3.1a98.4 98.4 0 0 1 1.4-6.2c0-.6 0-1.2-.3-1.8-.2-.4-.5-.9-1-1.3l-1.2-.9a23 23 0 0 0-7.3-2.8c-.5 0-.9.1-1.3.3a3 3 0 0 0-1.3 1l.1-.1-1.6 2a5 5 0 0 0-1 2v.2l-.2 1.6-.4-.7a11.2 11.2 0 0 0-6.5-5.2 23.5 23.5 0 0 0-6-1.3 11.4 11.4 0 0 0-6.8 2.3v.1c-1 1-2 1.9-2.8 3l.2-.4-1.6 2L68 59a26.6 26.6 0 0 0-4.8 15.4c0 1.7.2 3.4.5 5 .4 1.7 1 3.2 1.6 4.5.5 1 1.2 1.8 2 2.5a13.2 13.2 0 0 0 5.8 2.8 27.8 27.8 0 0 0 4.9.6 10.4 10.4 0 0 0 6.8-2.3 18 18 0 0 0 2-2l1.6-2 2-3-.5 2.8a4 4 0 0 0 .5 3.3c.5.7 1.2 1.2 2 1.7l2.2.8a133.4 133.4 0 0 1 3.4.7 3 3 0 0 0 2-.6c0-.2.2-.3.3-.4l1.6-2-.1.2c.4-.5.7-1 .8-1.8v-.1l.7-4 .3-1.5h.3l-.2.9a69 69 0 0 0-.4 3c-.4 1.8.2 3.3 1.4 4.2.8.6 1.8 1 3.2 1.5a89.8 89.8 0 0 1 3 .6h.2c.7 0 1.3-.2 1.8-.5a2.9 2.9 0 0 0 .6-.5l1.7-2a307.6 307.6 0 0 1 2.3-8.2l.7-3a4.5 4.5 0 0 0 3.6.5c1.7-.4 3.7-.8 5.8-1l6.5-.6c.8 0 2-.2 2.7-1v-.1l1.7-2c.7-.8.8-2 .2-3.5Zm-60.6 9.9.1-.1v.1Zm-.7-4.5a28.4 28.4 0 0 1 2.9-8.8V66a26.4 26.4 0 0 1-1 7.3 26.3 26.3 0 0 1-1.8 5l-.2-1.6v-3.1Zm-7-17.4Zm16.9 28.6.1-.1-.1.1Zm24-32.9Zm-.3.5V52Zm-.2.4Zm-15.1-.5-.1.2v-.2Zm-.3.5v.2-.2Zm-.2.5v.2-.2Zm5.9 34.4Zm13.7-.4.2-.2-.2.2Zm-.4.3.2-.1h-.2Zm.2-.2h.2-.2Z" class="cls-3"/>
      <path d="M208 55.3a4 4 0 0 0-.5-1.7l-.8-1.1-.2-.2a37.3 37.3 0 0 0-3.7-2.8 5.6 5.6 0 0 0-2.8-.6c-.9 0-1.7.5-2.3 1.3V50l-1.3 1.6c-.2.3-.5.7-.6 1.1a569.3 569.3 0 0 1-4 7c0-.4-.2-.7-.3-1-.6-2-1.3-3.8-1.9-5.3v-.2c-.6-1-1-1.7-1.5-2.2a5.2 5.2 0 0 0-2.8-1.6l-2.3-.2h-.5l-2.3.1h-.2a4 4 0 0 0-2.4 1.2c-.2 0-.4 0-.6-.2a61.3 61.3 0 0 0-5.8-1.3h-.5c-1 0-2 .5-2.7 1.2a7 7 0 0 0-.8.8l-1.4 1.6-1 1.5-1.5 2.8-1.7 3.2-.5 1-.3-1.8-.2-1.6v-.5l-.1-.5-.3-1.3a5.6 5.6 0 0 0-2.1-3.1 8 8 0 0 0-2-1 37.5 37.5 0 0 0-8-1.8c-.7 0-1.4.1-2 .4a2 2 0 0 0-1 1v-.2l-1.4 1.7c-.4.5-.8 1.2-1 2.1v.2a121.6 121.6 0 0 0-2 14.3 316.2 316.2 0 0 0-1 13.4c0 1.1.2 2 .7 2.8a5 5 0 0 0 2.2 1.7 13.7 13.7 0 0 0 3.9 1.3l1.2.2a3 3 0 0 0 1.6-.5c.3-.1.5-.3.7-.6l1.4-1.6-.1.1c.4-.5.7-1 .9-1.8v-.3l.1-1.5.2.3c.2.4.4.9.7 1.2.3.4.7.7 1.2 1l1 .5a24.7 24.7 0 0 0 4 .9h.3c.6 0 1-.2 1.5-.5.3-.1.5-.4.7-.6l1.4-1.7.2-.3c0 .7.1 1.4.4 2 .4.8 1.1 1.4 2.1 1.9l2 .8a27.6 27.6 0 0 0 3.1.6 3 3 0 0 0 2.4-1.1l1.4-1.7a5 5 0 0 0 .9-1.7 120.7 120.7 0 0 1 1.9-7.5l1.3-5 1.1-3.9 1 2.8 1.6 4.2a79 79 0 0 0-1 7.9v.2c-.1 1 0 1.9.4 2.6a5 5 0 0 0 2.2 2 30.5 30.5 0 0 0 5.5 1.6c.5 0 .9-.1 1.3-.3l1-.7 1.3-1.7v.1c.3-.4.6-1 .8-1.8l.8-4.1 1-4.2a449.6 449.6 0 0 0 9.2-14.3 36 36 0 0 0 2-3.7l.5-1.2a4 4 0 0 0 .2-1.6Zm-10.5-4.8-.1.1v-.1Zm-30.7 1-.1.3.1-.2Zm-22-.3v.2-.2Zm-.2.5-.1.2v-.2Zm-.2.5-.1.2v-.2Zm6.3 34.2Zm12.2-2.6h.2-.2Zm30.2 2.7.2-.2-.2.2Zm-.6.4.3-.1-.3.1Zm.4-.2.1-.1h-.1Zm-53.3-19.9-.1-.1-.7-1.5a19.8 19.8 0 0 0-1.2-2.2 7 7 0 0 0-1.9-1.8 5 5 0 0 0-2.7-.8 62.4 62.4 0 0 0-10.2.8l1.2-4.3c.4-1.1.4-2.1 0-3-.3-.7-.9-1.4-1.9-2.1l-.1-.1a24.6 24.6 0 0 0-5-2.3c-.8-.3-1.4-.4-2-.4l-1 .2a3 3 0 0 0-1.6 1l-1.4 1.6-.9 2-1.7 7.1-1 4.7h-.4l.7-3.1a98.4 98.4 0 0 1 1.4-6.2c0-.6 0-1.2-.3-1.8-.2-.4-.5-.9-1-1.3l-1.2-.9a23 23 0 0 0-7.3-2.8 3 3 0 0 0-1.3.3 3 3 0 0 0-1.2 1v-.1l-1.3 1.6a5 5 0 0 0-1 2v.3l-.3 2.4-.6-1.2a8 8 0 0 0-2.7-3.2c-1-.8-2.3-1.5-3.8-2a23.5 23.5 0 0 0-6-1.3 11.4 11.4 0 0 0-6.8 2.3v.1c-1 .9-2 1.9-2.8 3l.2-.4-1.3 1.7a26.6 26.6 0 0 0-6 17c0 1.7 0 3.4.4 5s1 3.1 1.6 4.5c.5 1 1.2 1.8 2.1 2.5a13.2 13.2 0 0 0 5.7 2.8 27.8 27.8 0 0 0 4.9.6 11.8 11.8 0 0 0 6.8-2.4 18 18 0 0 0 2-2l1.3-1.6c.8-1 1.6-2.2 2.3-3.4v-.2a74 74 0 0 1-.5 3.1 4 4 0 0 0 .5 3.3 8.5 8.5 0 0 0 4.2 2.5 133.4 133.4 0 0 1 3.4.7 3 3 0 0 0 2-.7l.3-.3 1.3-1.7-.1.2c.4-.5.7-1 .9-1.8V84l.6-4 .3-1.8.6-.1-.2 1a69 69 0 0 0-.4 3c-.4 1.7.1 3.2 1.4 4.2.8.6 1.8 1 3.2 1.4a89.8 89.8 0 0 1 3 .7h.2c.7 0 1.3-.2 1.8-.5l.6-.6 1.4-1.6c.3-.3.6-.9.7-1.7a307.6 307.6 0 0 1 2.4-10c.3.3.6.4 1 .5a4.4 4.4 0 0 0 2.8.2 25 25 0 0 1 5.8-1l6.5-.6c.8 0 2-.2 2.7-1.1l1.4-1.7c.7-.9.8-2 .2-3.5ZM79 76.8h.1Zm-.7-4.5a28.4 28.4 0 0 1 3.1-9.3v1.5a26.4 26.4 0 0 1-.9 7.3 26.3 26.3 0 0 1-2 5.5c-.2-.5-.3-1-.3-1.8v-3.1Zm-7-17.4Zm16.9 28.6.1-.2-.1.2Zm24-33v.1Zm-.3.5Zm-.2.5Zm-15.2-.3V51v.2Zm-.5 1 .1-.2v.2Zm.2-.5.1-.2v.2Zm5.8 34.7Zm13.8-.4v-.2.2Zm-.4.3.1-.1h-.1Zm.2-.2Z"/>
      <path d="M92.5 55.7c.4.8.8 1.8 1 3A35 35 0 0 1 90.2 77a17 17 0 0 1-3.8 4.7 8 8 0 0 1-3.2 1.6c-1 .2-2.3.3-3.7.2l-3-.5a10.6 10.6 0 0 1-4.7-2.3 6.5 6.5 0 0 1-1.5-1.9 15 15 0 0 1-1.4-3.9 26.2 26.2 0 0 1 4.2-18.8c1-1.4 2.1-2.7 3.4-3.8a9.3 9.3 0 0 1 6.6-1.8c1.5.2 2.8.5 4.1 1 1.3.5 2.4 1 3.2 1.7 1 .8 1.7 1.6 2.1 2.5Zm-9.9 2c-.6.5-1.3 1.4-2 2.4a27.4 27.4 0 0 0-4 14.5c0 1 .2 2 .5 2.8.3.8.7 1.2 1.3 1.4.5.2 1 0 1.7-.3.5-.4 1.1-1 1.7-1.9a28.7 28.7 0 0 0 3.8-11l.2-3.8c0-1.2 0-2.4-.3-3.2-.3-1-.6-1.5-1.1-1.6-.6-.2-1.1 0-1.8.6Zm38.4 3.8a352.9 352.9 0 0 0-6.1 21.9l-.8.1a7.3 7.3 0 0 1-5-1.7c-.5-.4-.7-1-.5-2a55.9 55.9 0 0 1 1.2-7l-3.1.4-3.1.5a79 79 0 0 0-1 4.9l-.7 4c0 .5-.2.7-.5.9h-1.3l-1.9-.6-1.7-.7a3 3 0 0 1-1.2-1c-.3-.3-.3-.8-.2-1.5a316.8 316.8 0 0 0 2-13.3L98 59l.9-6.9c.2-.8.5-1.3.8-1.4s1-.1 1.7.2a21.9 21.9 0 0 1 5 2.2l.8.6.5.6v.7l-.1.8-1.3 5-1.4 6.3a69 69 0 0 1 6-.6 1081.6 1081.6 0 0 0 3.6-15c.3-.8.6-1.2 1-1.4.4 0 1 0 1.8.2a19 19 0 0 1 4.5 2c.6.6 1 1 1.1 1.3.2.4.1.9 0 1.5l-2 6.3Z" class="cls-2"/>
      <path d="M122.5 62.5a76.5 76.5 0 0 1 11.5-1c.6 0 1 .2 1.5.5s.9.7 1.3 1.2l1 1.8c.1.6.4 1.1.6 1.6.3.6.3 1 .1 1.2-.1.2-.5.3-1.2.4l-6.6.6a42 42 0 0 0-6.2 1c-.5.2-1 .2-1.4 0a4 4 0 0 1-1.5-1.1 16.5 16.5 0 0 1-2.5-3.3c-1-1.4-.8-2.2.5-2.4l3-.5Zm30.2 7.1a282.7 282.7 0 0 0-1.9 13c0 .5-.2.8-.5 1h-1.2a19.8 19.8 0 0 1-3.4-1.2 3 3 0 0 1-1.3-1c-.2-.3-.3-.8-.2-1.4a57.6 57.6 0 0 1 .5-8.2 326.7 326.7 0 0 1 2.6-19.4c.2-.8.5-1.4 1-1.6.3-.2 1-.3 1.9-.1a31.7 31.7 0 0 1 6.2 1.6c.6.2 1.1.4 1.5.7l.8.8.4 1a49.2 49.2 0 0 1 .4 2.2l.2 1.6.5 3.5 1 6a73 73 0 0 1 3-6.2 183.3 183.3 0 0 1 6.4-11.1c.5-.4 1-.6 1.5-.7a60 60 0 0 1 8.8 2.6c.7.4 1.2.8 1.4 1.2.2.5.1 1.1-.2 2l-1.2 4a249.4 249.4 0 0 0-4.3 14.9 359.6 359.6 0 0 0-2 7.6c-.2.5-.4.8-.7 1-.2.2-.6.2-1.3 0a32.5 32.5 0 0 1-3.3-1c-.6-.3-1-.6-1.2-1a52 52 0 0 1 1.2-8.3 177.3 177.3 0 0 1 2.2-9.1 207.5 207.5 0 0 0-9 16.9l-.2.3a1 1 0 0 1-.5.1h-.8a22 22 0 0 1-3.3-1l-.6-.5-.4-.7-.3-1a83.4 83.4 0 0 1-2.7-13.5l-1 5Z" class="cls-2"/>
      <path d="M204.6 59.6a154 154 0 0 1-9.6 14.5l-1.1 4.7-.9 4.2c-.1.5-.3.8-.5.9h-1.3a29 29 0 0 1-3.7-1.3 3 3 0 0 1-1-1c-.3-.3-.3-.8-.3-1.5l.5-3.7.7-4.7-1.7-4.8-1.8-5-1.7-5a202.8 202.8 0 0 1-1.8-6l1.2-.4 2.2-.2a6 6 0 0 1 2.2.2 3 3 0 0 1 1.7.9c.3.4.7 1 1 1.8a97.5 97.5 0 0 1 3.8 11.2 210.2 210.2 0 0 0 8-13.5c.1-.6.5-1 1-1s1 .1 1.6.4a40.1 40.1 0 0 1 3.7 3.2l.2.7-.1.9-.4 1c-.5 1-1 2.1-2 3.5Z" class="cls-2"/>
      <path fill="url(#Sfumatura_senza_nome_52)" d="M81.3 83.2h-1.4l-2.9-.5a10 10 0 0 1-4.3-2.1c-.5-.5-1-1-1.3-1.6a20 20 0 0 1-1.7-8 25.1 25.1 0 0 1 4.5-13.8c1-1.3 2-2.5 3.3-3.6a8.3 8.3 0 0 1 5.8-1.6c1.4.2 2.7.6 3.9 1 1.2.5 2.2 1 3 1.6.8.7 1.4 1.4 1.8 2.2.4.7.7 1.6.9 2.7a30.9 30.9 0 0 1-3.2 17.7c-1 1.7-2.2 3.2-3.6 4.4a7.3 7.3 0 0 1-4.8 1.6Zm3-26.6c-.6 0-1.3.3-2 1-.7.6-1.4 1.5-2.1 2.7A28.6 28.6 0 0 0 76 71.6c-.2 1.3-.2 2.5-.2 3.6a9 9 0 0 0 .6 3.1c.4 1.1 1 1.8 2 2l.7.2a3 3 0 0 0 1.7-.6 8 8 0 0 0 2-2.1 31.1 31.1 0 0 0 3.8-18.9c-.3-1.2-.9-2-1.7-2.2h-.7Z"/>
      <path fill="url(#Sfumatura_senza_nome_52-2)" d="m101.3 83.3-.6-.1-1.9-.6a6.2 6.2 0 0 1-1.5-.6l-1-.6v-.8a90.1 90.1 0 0 0 2.1-13.3l.9-7.5a239.7 239.7 0 0 1 1.2-7.6l.9.2a20.6 20.6 0 0 1 5.5 2.7c.2.1.2.2.2.3v.9c-.5 1.4-.9 3.1-1.3 5l-1.4 6.2a1 1 0 0 0 .9 1.2h.1l3-.3 3-.3c.4 0 .8-.3.9-.7a634.9 634.9 0 0 0 3.5-15l.3-.7h.2l1 .2a13.9 13.9 0 0 1 4.3 2l.8.7-.1 1a342.6 342.6 0 0 0-7.8 27.5v.2l-1-.2-1.4-.4c-.9-.2-1.6-.5-2-1-.2 0-.4-.2-.2-1a62.6 62.6 0 0 1 1.1-7c0-.3 0-.6-.2-.9a1 1 0 0 0-.7-.3h-.1l-3.1.5-3.2.4a1 1 0 0 0-.7.8c-.4 1.7-.8 3.4-1 4.9l-.7 4v.2Z"/>
      <path fill="url(#Sfumatura_senza_nome_52-3)" d="m124.1 69.7-.4-.1c-.2-.1-.6-.3-1.1-1a15.7 15.7 0 0 1-2.8-4h.2a49.5 49.5 0 0 1 10.5-1.3l3.8-.2c.4 0 .7.1 1 .3.4.2.7.5 1 1l.8 1.6.8 1.6v.2h-.3l-6.7.6a42.4 42.4 0 0 0-6.8 1.2Z"/>
      <path fill="url(#Sfumatura_senza_nome_52-4)" d="M150.1 83.3h-.5a21.3 21.3 0 0 1-3.1-1l-1-.7v-1a56 56 0 0 1 .4-8 338.8 338.8 0 0 1 2.6-19.3c.2-.9.5-1 .5-1l.6-.1h.7a30.8 30.8 0 0 1 6.1 1.6l1.2.6a2.3 2.3 0 0 1 1 1.3l.2 1.2v.8l.3 1.7c0 .8.3 2 .5 3.4l1 6.1c0 .4.3.8.7.8h.2c.3 0 .7-.2.8-.5l1.4-3 1.7-3.3a219.7 219.7 0 0 1 3.5-6.5 47 47 0 0 1 2.6-4.3c.3-.2.7-.4 1-.4h.2a61.9 61.9 0 0 1 8 2.5c.6.2 1 .5 1 .7 0 .1.1.5-.1 1.3a374.3 374.3 0 0 0-5.6 19l-1.2 4.3a131 131 0 0 0-1.1 3.8l-.5-.1a24 24 0 0 1-3.1-1c-.6-.3-.7-.5-.8-.6v-.9a63 63 0 0 1 1.3-6.8 216 216 0 0 1 2.1-9 1 1 0 0 0-.9-1.3 1 1 0 0 0-.8.5 204 204 0 0 0-8.6 16.3l-.3.6h-.6a21 21 0 0 1-3-1c-.1 0-.2 0-.3-.2l-.3-.4-.3-1A80.2 80.2 0 0 1 155 65a1 1 0 0 0-1-.8 1 1 0 0 0-1 .8 335.9 335.9 0 0 0-2.8 18.3Z"/>
      <path fill="url(#Sfumatura_senza_nome_52-5)" d="M192.3 83.6a35.8 35.8 0 0 1-4.1-1.2l-.6-.6s-.2-.3-.1-1l.5-3.7a69.5 69.5 0 0 1 .6-5.1l-1.7-4.8-1.8-5a818.7 818.7 0 0 1-3.3-9.5l-.1-.6h.4l2.1-.2h.3c.6 0 1.1 0 1.6.2.6.1 1 .3 1.2.5l1 1.6a107.6 107.6 0 0 1 3.6 11.1c.1.4.5.6.8.7h.1c.4 0 .7-.2.8-.5a215.9 215.9 0 0 0 8.3-14c.4 0 .7.1 1.1.3a33.5 33.5 0 0 1 3.3 2.8v.8l-.4 1-1.8 3.3a141.1 141.1 0 0 1-6.2 9.6 567.2 567.2 0 0 1-3.5 5.2 101.7 101.7 0 0 0-2 9.1Z"/>
      <path d="M231.7 129.4v-.5a33 33 0 0 0-2.5-8.6c-1.3-3-3.4-5.6-6.4-8a31.9 31.9 0 0 0-10.4-5.8 60 60 0 0 0-11.6-2.9 29.7 29.7 0 0 0-9.6 0 25 25 0 0 0-5.4 1.4c-2 .7-3.7 1.7-5.3 3a53.2 53.2 0 0 0-9.4 9v-.1l-1.3 1.6c-.3-1.4-.8-2.7-1.6-3.9-1-1.5-2.3-2.8-4-4-1.2-.9-2.5-1.7-4-2.5a29 29 0 0 0-4.2-2.3 19.6 19.6 0 0 0-6.7-1.7c-1.7 0-3.2.4-4.7 1a9.3 9.3 0 0 0-3.1 2.7l.2-.2-4.3 5.2a11 11 0 0 0-1.9 3l-12 31.4-.5 1-.4-3.3L121 132l-1.5-11c-1-6.2-4.9-11-11.1-13.2a29 29 0 0 0-12.5-2.3c-3.6 0-6.2 1-7.9 3l-1.7 2.1a80.6 80.6 0 0 0-14-6.7l-.3-.1a29.5 29.5 0 0 0-13.3-1 22.9 22.9 0 0 0-9.5 3.8A51 51 0 0 0 34.7 120l1.2-1.5-4.3 5.2-1.2 1.5c-2 2.7-4 5.4-5.4 8.2a37.6 37.6 0 0 0-4.8 17.7 27.4 27.4 0 0 0 7.4 17.9 24.7 24.7 0 0 0-5 1.6c-1.1.6-2 1.4-2.8 2.3l.1-.1-4.3 5.2a8.7 8.7 0 0 0-2 6.4c.3 2.8 2.2 5.5 6.4 9A58 58 0 0 0 37.2 205c5.4 2.1 11 3.2 16.6 3.2h1a36 36 0 0 0 20.5-5.8c2-1.5 3.9-3.1 5.3-4.9l4.3-5.2-.5.6 1.2-1.5c1.4-1.8 2.5-3.6 3.3-5.2 1.6-3.1 2.1-6.2 1.4-9.2-.6-2.7-1.9-5.1-3.9-7.4-.8-1-1.8-2-2.9-2.8.4-.4.8-.7 1.1-1.2l3-3.6a380 380 0 0 0 6.1 28c.6 2.3 1.7 4.6 3.4 7 1.9 2.8 4.6 5 8 6.5 2.3 1.1 4.6 2.1 6.8 2.8l6.8 2.1c1.8.5 3.4.7 4.9.7a10.7 10.7 0 0 0 8.6-4l4.3-5.2-.5.5c.7-.8 1.4-1.7 2-2.8a313.8 313.8 0 0 0 10.7-21.9l.8-1.7c.1 2.2.4 4.4.7 6.4.8 4.6 2.3 8.7 4.3 12.2a29.4 29.4 0 0 0 11.2 11l.4.3a60.6 60.6 0 0 0 21.2 4.9A28.7 28.7 0 0 0 202 205c3.8-2.3 7.4-5.5 10.7-9.4l4.3-5.2-.1.2a58.6 58.6 0 0 0 10.1-17.7l.2-.3c.8-2.4 1.1-4.5 1-6.4 0-2.4-1-4.8-2.9-7.3l-.6-.8 3.3-4-.5.5a11.6 11.6 0 0 0 2.7-5 47 47 0 0 0 1.4-9.7 73.1 73.1 0 0 0 .2-10.5Zm-39 17.2c.8-1.8 1.7-3.4 2.5-4.9v1l.4 2.5c.2 1.8.6 3.4 1.2 5l-5 .8-1.1.2 2-4.6Z" class="cls-9"/>
      <path d="M236.7 122.7v-.4c-.5-3.2-1.3-6-2.5-8.7-1.3-3-3.5-5.6-6.4-8a31.9 31.9 0 0 0-10.4-5.7 60 60 0 0 0-11.6-3 29.7 29.7 0 0 0-9.6 0 25 25 0 0 0-5.4 1.5c-2 .7-3.7 1.7-5.3 2.9a53.2 53.2 0 0 0-9.4 9v-.1l-1.3 1.6c-.3-1.3-.8-2.6-1.6-3.8-1-1.5-2.3-2.9-4-4a23 23 0 0 0-4-2.6l-4.2-2.3a19.6 19.6 0 0 0-6.8-1.6 9.3 9.3 0 0 0-7.8 3.7l.3-.3-4.4 5.2a15 15 0 0 0-1.8 3l-12 31.4-.5 1.1-.4-3.4-1.6-12.8-1.5-11c-1-6.3-4.9-11-11.1-13.3a29 29 0 0 0-12.5-2.2c-3.6 0-6.2 1-7.9 3l-1.7 2-4.4-2.5a80 80 0 0 0-9.6-4.2H77a29.5 29.5 0 0 0-13.3-1 22.9 22.9 0 0 0-9.5 3.8 51 51 0 0 0-14.5 13.3l1.2-1.5-4.3 5.2-1.2 1.6c-2.1 2.6-4 5.4-5.4 8.2a37.6 37.6 0 0 0-4.8 17.7 27.4 27.4 0 0 0 7.4 17.8 24.7 24.7 0 0 0-5 1.6c-1.1.7-2 1.4-2.8 2.3l-4.2 5.2a8.7 8.7 0 0 0-2 6.3c.3 2.9 2.2 5.5 6.4 9.1a58 58 0 0 0 17.2 11.4c5.4 2.1 11 3.2 16.6 3.2h1a36.2 36.2 0 0 0 20.5-5.8c2-1.5 3.9-3 5.3-4.8l4.3-5.2-.5.6 1.2-1.5a32 32 0 0 0 3.3-5.3c1.6-3 2-6.2 1.4-9.2-.6-2.6-2-5-4-7.4-.8-1-1.7-1.9-2.8-2.8l1.1-1.1 3-3.6c1.8 10.2 3.9 19.7 6 28 .7 2.3 1.8 4.6 3.5 7 1.9 2.7 4.5 5 8 6.5 2.3 1.1 4.6 2 6.8 2.8l6.8 2c1.8.5 3.4.7 4.9.7 1.3 0 2.6-.2 3.7-.5 1.8-.7 3.5-1.8 4.8-3.5l4.4-5.2-.5.6c.7-.8 1.4-1.8 2-2.9a313.8 313.8 0 0 0 10.7-21.8l.8-1.7a44.8 44.8 0 0 0 5 18.5 29.4 29.4 0 0 0 11.2 11 60.6 60.6 0 0 0 21.6 5.1 28.7 28.7 0 0 0 21.5-9 52.6 52.6 0 0 0 3.8-4l4.3-5.2-.2.2a58.6 58.6 0 0 0 10.2-17.6l.1-.4c.8-2.3 1.2-4.4 1.1-6.3 0-2.4-1-4.8-3-7.4l-.5-.8 3.3-4-.5.5a11.6 11.6 0 0 0 2.7-5 47 47 0 0 0 1.4-9.6 73.1 73.1 0 0 0 .2-10.5Zm-39 17.2 2.5-4.8v1c0 .8.2 1.7.4 2.5a25 25 0 0 0 1.1 4.9c-1.7.2-3.4.5-5 .9l-1 .2 2-4.7Z" class="cls-3"/>
      <path d="M238.8 119.8v-.4c-.5-3.2-1.3-6-2.4-8.7-1.4-3-3.5-5.6-6.5-8a31.9 31.9 0 0 0-10.4-5.7 60 60 0 0 0-11.6-3 29.7 29.7 0 0 0-9.6 0 25 25 0 0 0-5.4 1.5 18 18 0 0 0-5.2 3 53.2 53.2 0 0 0-9.5 8.9l-1.2 1.5a13.8 13.8 0 0 0-5.7-7.8c-1.1-1-2.5-1.8-4-2.6-1.3-.8-2.8-1.6-4.2-2.2a19.6 19.6 0 0 0-6.7-1.7 9.3 9.3 0 0 0-7.8 3.7l.2-.3-3.6 4.4c-.7.8-1.3 1.8-1.8 3-4.1 10.5-8.2 21-12.1 31.4l-1 2.7-.6-4.2-1.6-12.8-1.5-11c-.9-6.3-4.9-11-11.1-13.3A29 29 0 0 0 103 96c-3.6 0-6.2 1-7.8 3l-1.8 2-4.4-2.5a79 79 0 0 0-9.6-4.1l-.3-.1a29.5 29.5 0 0 0-13.3-1 22.9 22.9 0 0 0-9.5 3.8 51 51 0 0 0-14.5 13.4L43 109l-3.6 4.3-1.2 1.5a68 68 0 0 0-5.4 8.2 37.6 37.6 0 0 0-4.7 17.7 27.4 27.4 0 0 0 8 18.5l-.8.1a25.3 25.3 0 0 0-5.6 1.7c-1.1.7-2 1.5-2.8 2.3h.1l-3.6 4.3a8.7 8.7 0 0 0-2 6.4c.4 2.8 2.2 5.5 6.4 9a58 58 0 0 0 17.3 11.5c5.3 2 11 3.2 16.5 3.2h1.1c4.5-.1 8.5-.7 11.8-1.8a33.6 33.6 0 0 0 11.5-6.4 14 14 0 0 0 2.4-2.5l3.6-4.3-.5.6 1.2-1.5c1.4-1.8 2.5-3.6 3.3-5.3a13 13 0 0 0 1.4-9.2c-.6-2.6-1.9-5-3.9-7.4l-3-3a9.7 9.7 0 0 0 2-1.8l3-3.6c1.8 10.3 3.8 19.7 6 28 .6 2.3 1.7 4.6 3.4 7 2 2.8 4.6 5 8 6.5a75.3 75.3 0 0 0 13.6 4.8c1.8.6 3.4.8 5 .8a11.7 11.7 0 0 0 5-1.2 9.5 9.5 0 0 0 1.8-1.2c.6-.4 1.2-1 1.7-1.6l3.6-4.4-.5.6c.7-.8 1.4-1.7 2-2.9a313.8 313.8 0 0 0 10.7-21.8l1.5-3.2c.1 2.4.4 4.8.8 7 .8 4.6 2.2 8.7 4.2 12.2a29.4 29.4 0 0 0 11.2 11l.5.3a60.6 60.6 0 0 0 21.1 4.9c1.8 0 3.5-.2 5.2-.4 3.2-.6 6.4-1.7 9.4-3.4 3.9-2.2 7.5-5.4 10.7-9.3l3.6-4.4-.1.2a58.6 58.6 0 0 0 10.2-17.6v-.3c.9-2.4 1.2-4.5 1.2-6.4-.1-2.4-1-4.8-3-7.3l-.6-.9 3.3-4-.5.5a11.6 11.6 0 0 0 2.8-4.9 47 47 0 0 0 1.3-9.7 73.1 73.1 0 0 0 .2-10.5Zm-39 17.2c1-2.2 2.2-4.2 3.3-6a22.3 22.3 0 0 0 .3 3.8c.2 2 .8 4 1.5 5.7-2 .2-4.1.6-6 1l-1 .2c.5-1.6 1.2-3.2 2-4.7Z"/>
      <path d="M38.1 162.3a16.2 16.2 0 0 1 7.9.5c1.2.4 2.3.9 3.3 1.5a52.8 52.8 0 0 0 14.4 6.5c4.2 1 7.1.8 9-.7.7-.4.8-1 .4-1.8a9.2 9.2 0 0 0-2.5-2.6c-1.2-1-2.7-2-4.5-3.2a918.3 918.3 0 0 0-11.7-7.4c-2-1.4-3.9-2.7-5.5-4.1-1.8-1.4-3.4-3-4.8-4.9a21.7 21.7 0 0 1-3.4-20.4 32 32 0 0 1 3-7.2 55.4 55.4 0 0 1 21.5-21.3c1.2-.6 2.6-1 4.1-1.3a23.3 23.3 0 0 1 10.8.8c3 1 5.9 2.4 8.8 3.9 3 1.5 5.5 3.2 7.4 5.1a14.9 14.9 0 0 1 4.5 7.2c.3 1.2.5 2.3.5 3.4v3.1a57.2 57.2 0 0 1-2.5 12.2 81 81 0 0 1-4.1 11.3 6.4 6.4 0 0 1-2.4 2.5c-.9.3-2 .2-3.6-.4-9-3.2-13-7.5-12.4-13 0-1 .3-2.4.6-3.9a717.4 717.4 0 0 1 2-8.6c.3-1.4.4-2.5.3-3.4 0-.8-.4-1.3-1-1.4-.4-.2-1.3.2-2.6 1A33.7 33.7 0 0 0 65 127.4a21 21 0 0 0-2 5.4c-.2 1.8-.2 3.5.2 5.3a8.5 8.5 0 0 0 2.9 4.5c1.9 1.8 4 3.4 6.3 5l7 4.6 6.6 4.4c2.1 1.5 3.8 3 5.2 4.5a11 11 0 0 1 2.5 4.8c.4 1.7 0 3.5-1 5.4a27 27 0 0 1-2.8 4.4c-1.1 1.6-2.7 3-4.7 4.4-2 1.4-4.4 2.5-7.2 3.4a38.5 38.5 0 0 1-25.5-1.3A52 52 0 0 1 37 171.7c-2.9-2.4-4.4-4.2-4.5-5.4 0-1.3.6-2.3 1.9-3 1.2-.5 2.4-.8 3.7-1Zm131.7-40.1a490.1 490.1 0 0 1-10.9 25.5 623.6 623.6 0 0 1-16.9 34.9 6 6 0 0 1-3.2 3c-1.3.4-3 .3-5.4-.3a81 81 0 0 1-12.6-4.5 13.3 13.3 0 0 1-5.6-4.5 16.8 16.8 0 0 1-2.5-5.2 376 376 0 0 1-6.2-30.4 713.6 713.6 0 0 1-4.8-37.1c-.2-1.8 0-3 .4-3.8.4-.7 1.6-1 3.6-1s3.7 0 5.3.3c1.6.3 3.3.8 5 1.5 4.4 1.6 6.9 4.4 7.5 8.7l1.3 11a3940.2 3940.2 0 0 1 3.3 27l2 14.5c4.3-9.5 8.5-19.6 12.7-30.1 4-10.6 8.2-21.1 12.3-31.5a5 5 0 0 1 2.1-2.4c.9-.5 1.8-.6 3-.4 1 .1 2.2.5 3.4 1l3.7 2a33 33 0 0 1 3.5 2.3c1 .8 1.9 1.6 2.5 2.5.6 1 .9 2 1 3a155.5 155.5 0 0 1-4.5 14Zm63 16.2c-.7.5-1.8.6-3.5.5-4.6-.7-8-2-10-4a12.9 12.9 0 0 1-3.8-8.2 14.9 14.9 0 0 1-.2-4v-2l-.3-2-.7-3.1c-.2-.9-.7-1.4-1.3-1.6-1.3-.4-3 .2-4.7 1.6a30 30 0 0 0-5.5 6.4 78.7 78.7 0 0 0-10 21 52.4 52.4 0 0 0-3 19c.1 2.8.6 5.2 1.4 7.2.7 2 1.8 3.3 3.2 3.7 1.2.4 2.4.3 3.7-.3a12 12 0 0 0 3.8-2.8 31 31 0 0 0 3.7-4.8l3.3-6c-4 .1-7-.6-9.1-2.2a15.8 15.8 0 0 1-5.1-8c-.3-.8-.2-1.5 0-2s.9-.9 1.6-1.2a9 9 0 0 1 2.6-.6l3.6-.6c2.4-.5 5-1 7.6-1.2a78 78 0 0 0 6.8-1c2.2-.3 4-.3 5.4.1a8 8 0 0 1 3.9 2.5l2.2 2.7c.7.9 1.3 1.8 2 2.5a7.5 7.5 0 0 1 1.7 4.1c0 1.2-.3 2.6-.9 4.3a62 62 0 0 1-8.4 15c-3.1 4-6.6 7-10.2 9.2a22.6 22.6 0 0 1-7.5 2.6 28 28 0 0 1-8.3 0 55 55 0 0 1-14.8-4 22.8 22.8 0 0 1-8.8-8.8c-1.7-3-2.9-6.5-3.6-10.5-.6-4-.8-8.2-.4-12.6a73.3 73.3 0 0 1 15-39.5c3-3.8 6.2-7 10-9.8a15 15 0 0 1 3.8-2 13 13 0 0 1 4.2-1.1 29.8 29.8 0 0 1 13.2 1 51.2 51.2 0 0 1 10 3.8 28 28 0 0 1 4 2.7 15 15 0 0 1 4.7 5.8 25.7 25.7 0 0 1 2 11.7 63 63 0 0 1-1.7 14c-.5 1.4-1 2.2-1.6 2.6Z" class="cls-2"/>
      <path fill="url(#Sfumatura_senza_nome_171)" d="M67.7 184.1c-4.6 0-9.1-.9-13.5-2.6a49.6 49.6 0 0 1-18.4-13.8l.5-.4a17.9 17.9 0 0 1 5.4-1h1c1.2 0 2.3.2 3.4.6 1 .2 1.8.7 2.6 1.2h.1A55.8 55.8 0 0 0 64 175c1.8.5 3.5.7 5 .7 2.4 0 4.4-.6 6-1.7a3.7 3.7 0 0 0 1.1-5.1c-.6-1.1-1.6-2.2-3-3.4a613.5 613.5 0 0 0-16.4-10.7 53.5 53.5 0 0 1-9.8-8.4 19.4 19.4 0 0 1-4-11.3c-.1-2.2.2-4.5 1-6.8v-.1a30 30 0 0 1 2.8-6.7 52.3 52.3 0 0 1 17.4-18.7h.2a16.8 16.8 0 0 1 10.7-3c1.6 0 3.3.4 5 .9a72 72 0 0 1 8.5 3.7 28 28 0 0 1 9.4 7.7 12 12 0 0 1 1.7 5.9v2.9a55.8 55.8 0 0 1-2.5 11.7 76 76 0 0 1-4 10.8c-.5 1-1 1.2-1 1.3H92c-.3 0-.7 0-1.6-.4h-.1c-2.9-1-11.5-4.1-10.8-10.3v-.2c0-1 .3-2.1.6-3.5a717.4 717.4 0 0 1 2-8.7c.3-1.7.4-3 .3-4.1-.3-2.7-2-3.4-2.8-3.6l-.9-.1c-1 0-2.2.4-3.7 1.5A36.2 36.2 0 0 0 63.6 128c-1 2-1.8 4-2.2 6-.4 2.1-.3 4.2.2 6.2a11 11 0 0 0 3.6 5.9c2 1.8 4.2 3.6 6.6 5.2l7 4.6 6.6 4.4a28 28 0 0 1 4.7 4 10 10 0 0 1 2 3.8c.2 1 0 2.2-.8 3.6v.2c-.6 1.2-1.5 2.5-2.6 4a19 19 0 0 1-4.1 3.8c-1.8 1.2-4 2.3-6.6 3-2.6 1-5.7 1.4-9.4 1.5h-1Z"/>
      <path fill="url(#Sfumatura_senza_nome_171-2)" d="M137.8 185c-.8 0-1.8-.1-2.9-.4l-6.3-2c-1.8-.6-3.8-1.4-5.9-2.4-2-1-3.6-2.1-4.6-3.6a16.4 16.4 0 0 1-2.2-4.4 336 336 0 0 1-6-30.2 724.5 724.5 0 0 1-4.9-39l1.5-.1a21 21 0 0 1 9.4 1.7h.1c3.5 1.3 5.4 3.4 5.8 6.7l1.3 10.9a4252.7 4252.7 0 0 1 3.3 27l2 14.7c.2 1 1 2 2.2 2l.3.1c1 0 1.9-.5 2.3-1.4 4.3-9.6 8.6-19.8 12.7-30.4l12.4-31.4c.2-.4.5-1 .9-1.1a2 2 0 0 1 .9-.2h.5a9 9 0 0 1 2.8.9c1 .5 2.2 1.1 3.4 1.9h.1l3.3 2a7 7 0 0 1 1.8 2c.4.5.5 1 .6 1.7a7.4 7.4 0 0 1-.8 3c-.9 2.9-2 6.2-3.5 10a471 471 0 0 1-10.9 25.3 643 643 0 0 1-16.7 34.7c-.6 1-1.3 1.7-2 1.9l-1 .1Z"/>
      <path fill="url(#Sfumatura_senza_nome_171-3)" d="M201.7 184.7c-1.2 0-2.5 0-3.7-.3-4.8-.6-9.6-1.9-14-3.9a20.4 20.4 0 0 1-7.7-7.6l-.1-.2a29.6 29.6 0 0 1-3.3-9.5c-.6-3.8-.7-7.9-.4-12.1a71.5 71.5 0 0 1 14.5-38.2 48 48 0 0 1 9.4-9.2c1-.8 2.1-1.4 3.3-1.9 1.2-.4 2.4-.8 3.6-1a28 28 0 0 1 12.3 1 51.5 51.5 0 0 1 9.4 3.6 24 24 0 0 1 3.6 2.4 13 13 0 0 1 4 5 23 23 0 0 1 1.7 10.6 63 63 0 0 1-2.1 14.6h-1.8c-4-.5-6.9-1.7-8.6-3.3a10 10 0 0 1-3-6.8 11 11 0 0 1-.2-3.2V122l-.3-2v-.2a61 61 0 0 0-.8-3.3c-.6-2.3-2.1-3-3-3.3-.5-.2-1-.3-1.6-.3-1.7 0-3.5.8-5.4 2.4-2 1.6-4 3.9-6 6.9a81.1 81.1 0 0 0-10.3 21.6 54.2 54.2 0 0 0-3.1 19.8c.1 3.1.7 5.8 1.6 8 1 2.8 2.6 4.5 4.7 5.2a7 7 0 0 0 2.3.4 8 8 0 0 0 3.3-.8 15 15 0 0 0 4.5-3.4c1.4-1.4 2.7-3.1 4-5.1 1.2-2 2.4-4.1 3.5-6.4a2.5 2.5 0 0 0-2.2-3.6h-1.4c-2.7 0-4.9-.4-6.3-1.5a13.6 13.6 0 0 1-4.2-6.8l.1-.1a1588.8 1588.8 0 0 1 5.7-1l.1-.1a60 60 0 0 1 7.4-1.2 122.7 122.7 0 0 0 9.4-1.2l2 .2c.8.3 1.7.9 2.5 1.8.8.8 1.5 1.6 2.1 2.5l2 2.6c1 1.4 1.2 2.2 1.2 2.6 0 .6-.1 1.6-.7 3.4-2.3 5.6-5 10.4-8 14.2a35 35 0 0 1-9.6 8.7 20.6 20.6 0 0 1-10.4 2.6Z"/>
      <g opacity=".18" style="mix-blend-mode:overlay">
        <path d="M254.8 250a1 1 0 1 1-2 0 1 1 0 0 1 2 0Zm0-10.2a1 1 0 1 1-2 0 1 1 0 0 1 2 0Zm0-10.2a1 1 0 1 1-2 0 1 1 0 0 1 2 0Zm0-10.1a1 1 0 1 1-2 0 1 1 0 0 1 2 0Zm0-10.2a1 1 0 1 1-2 0 1 1 0 0 1 2 0Zm0-10.2a1 1 0 1 1-2 0 1 1 0 0 1 2 0Zm0-10.1a1 1 0 1 1-2 0 1 1 0 0 1 2 0Zm0-10.2a1 1 0 1 1-2 0 1 1 0 0 1 2 0Zm0-10.1a1 1 0 1 1-2 0 1 1 0 0 1 2 0Zm0-10.2a1 1 0 1 1-2 0 1 1 0 0 1 2 0Zm0-10.2a1 1 0 1 1-2 0 1 1 0 0 1 2 0Zm0-10.1a1 1 0 1 1-2 0 1 1 0 0 1 2 0Zm0-10.2a1 1 0 1 1-2 0 1 1 0 0 1 2 0Zm0-10.2a1 1 0 1 1-2 0 1 1 0 0 1 2 0Zm0-10.1a1 1 0 1 1-2 0 1 1 0 0 1 2 0Zm0-10.2a1 1 0 1 1-2 0 1 1 0 0 1 2 0Zm0-10.2a1 1 0 1 1-2 0 1 1 0 0 1 2 0Zm0-10.1a1 1 0 1 1-2 0 1 1 0 0 1 2 0Zm0-10.2a1 1 0 1 1-2 0 1 1 0 0 1 2 0Zm0-10.1a1 1 0 1 1-2 0 1 1 0 0 1 2 0Zm0-10.2a1 1 0 1 1-2 0 1 1 0 0 1 2 0Zm0-10.2a1 1 0 1 1-2 0 1 1 0 0 1 2 0Zm0-10.1a1 1 0 1 1-2 0 1 1 0 0 1 2 0Zm0-10.2a1 1 0 1 1-2 0 1 1 0 0 1 2 0Zm0-10.2a1 1 0 1 1-2 0 1 1 0 0 1 2 0Z" class="cls-2"/>
        <use xlink:href="#reuse-0" class="cls-2"/>
        <use xlink:href="#reuse-1" class="cls-2"/>
        <use xlink:href="#reuse-2" class="cls-2"/>
        <use xlink:href="#reuse-3" class="cls-2"/>
        <use xlink:href="#reuse-4" class="cls-2"/>
        <use xlink:href="#reuse-5" class="cls-2"/>
        <use xlink:href="#reuse-6" class="cls-2"/>
        <use xlink:href="#reuse-7" class="cls-2"/>
        <use xlink:href="#reuse-8" class="cls-2"/>
        <use xlink:href="#reuse-9" class="cls-2"/>
        <use xlink:href="#reuse-10" class="cls-2"/>
        <use xlink:href="#reuse-11" class="cls-2"/>
        <use xlink:href="#reuse-12" class="cls-2"/>
        <use xlink:href="#reuse-13" class="cls-2"/>
        <use xlink:href="#reuse-14" class="cls-2"/>
        <use xlink:href="#reuse-15" class="cls-2"/>
        <use xlink:href="#reuse-16" class="cls-2"/>
        <use xlink:href="#reuse-17" class="cls-2"/>
        <use xlink:href="#reuse-18" class="cls-2"/>
        <use xlink:href="#reuse-19" class="cls-2"/>
        <use xlink:href="#reuse-20" class="cls-2"/>
        <use xlink:href="#reuse-21" class="cls-2"/>
        <use xlink:href="#reuse-22" class="cls-2"/>
        <use xlink:href="#reuse-23" class="cls-2"/>
        <use xlink:href="#reuse-24" class="cls-2"/>
        <use xlink:href="#reuse-25" class="cls-2"/>
        <use xlink:href="#reuse-26" class="cls-2"/>
        <use xlink:href="#reuse-27" class="cls-2"/>
        <use xlink:href="#reuse-0" class="cls-2"/>
        <use xlink:href="#reuse-1" class="cls-2"/>
        <use xlink:href="#reuse-2" class="cls-2"/>
        <use xlink:href="#reuse-3" class="cls-2"/>
        <use xlink:href="#reuse-4" class="cls-2"/>
        <use xlink:href="#reuse-5" class="cls-2"/>
        <use xlink:href="#reuse-6" class="cls-2"/>
        <use xlink:href="#reuse-7" class="cls-2"/>
        <use xlink:href="#reuse-8" class="cls-2"/>
        <use xlink:href="#reuse-9" class="cls-2"/>
        <use xlink:href="#reuse-10" class="cls-2"/>
        <use xlink:href="#reuse-11" class="cls-2"/>
        <use xlink:href="#reuse-12" class="cls-2"/>
        <use xlink:href="#reuse-13" class="cls-2"/>
        <use xlink:href="#reuse-14" class="cls-2"/>
        <use xlink:href="#reuse-15" class="cls-2"/>
        <use xlink:href="#reuse-16" class="cls-2"/>
        <use xlink:href="#reuse-17" class="cls-2"/>
        <use xlink:href="#reuse-18" class="cls-2"/>
        <use xlink:href="#reuse-19" class="cls-2"/>
        <use xlink:href="#reuse-20" class="cls-2"/>
        <use xlink:href="#reuse-21" class="cls-2"/>
        <use xlink:href="#reuse-22" class="cls-2"/>
        <use xlink:href="#reuse-23" class="cls-2"/>
        <use xlink:href="#reuse-24" class="cls-2"/>
        <use xlink:href="#reuse-25" class="cls-2"/>
        <use xlink:href="#reuse-26" class="cls-2"/>
        <use xlink:href="#reuse-27" class="cls-2"/>
        <use xlink:href="#reuse-28" class="cls-2"/>
        <use xlink:href="#reuse-29" class="cls-2"/>
        <use xlink:href="#reuse-30" class="cls-2"/>
        <use xlink:href="#reuse-31" class="cls-2"/>
        <use xlink:href="#reuse-4" class="cls-2"/>
        <use xlink:href="#reuse-5" class="cls-2"/>
        <use xlink:href="#reuse-6" class="cls-2"/>
        <use xlink:href="#reuse-7" class="cls-2"/>
        <use xlink:href="#reuse-8" class="cls-2"/>
        <use xlink:href="#reuse-9" class="cls-2"/>
        <use xlink:href="#reuse-10" class="cls-2"/>
        <use xlink:href="#reuse-11" class="cls-2"/>
        <use xlink:href="#reuse-12" class="cls-2"/>
        <use xlink:href="#reuse-13" class="cls-2"/>
        <use xlink:href="#reuse-14" class="cls-2"/>
        <use xlink:href="#reuse-15" class="cls-2"/>
        <use xlink:href="#reuse-16" class="cls-2"/>
        <use xlink:href="#reuse-17" class="cls-2"/>
        <use xlink:href="#reuse-18" class="cls-2"/>
        <use xlink:href="#reuse-19" class="cls-2"/>
        <use xlink:href="#reuse-20" class="cls-2"/>
        <use xlink:href="#reuse-21" class="cls-2"/>
        <use xlink:href="#reuse-22" class="cls-2"/>
        <use xlink:href="#reuse-23" class="cls-2"/>
        <use xlink:href="#reuse-24" class="cls-2"/>
        <use xlink:href="#reuse-25" class="cls-2"/>
        <use xlink:href="#reuse-26" class="cls-2"/>
        <use xlink:href="#reuse-27" class="cls-2"/>
        <use xlink:href="#reuse-28" class="cls-2"/>
        <use xlink:href="#reuse-29" class="cls-2"/>
        <use xlink:href="#reuse-30" class="cls-2"/>
        <use xlink:href="#reuse-31" class="cls-2"/>
        <path d="M3.1 255a1 1 0 1 1-1.9 0 1 1 0 0 1 2 0Zm0-10.1a1 1 0 1 1-1.9 0 1 1 0 0 1 2 0Zm0-10.2a1 1 0 1 1-1.9 0 1 1 0 0 1 2 0Zm0-10.1a1 1 0 1 1-1.9 0 1 1 0 0 1 2 0Zm0-10.2a1 1 0 1 1-1.9 0 1 1 0 0 1 2 0Zm0-10.2a1 1 0 1 1-1.9 0 1 1 0 0 1 2 0Zm0-10.2a1 1 0 1 1-1.9 0 1 1 0 0 1 2 0Zm0-10.1a1 1 0 1 1-1.9 0 1 1 0 0 1 2 0Zm0-10.2a1 1 0 1 1-1.9 0 1 1 0 0 1 2 0Zm0-10.1a1 1 0 1 1-1.9 0 1 1 0 0 1 2 0Zm0-10.2a1 1 0 1 1-1.9 0 1 1 0 0 1 2 0Zm0-10.1a1 1 0 1 1-1.9 0 1 1 0 0 1 2 0Zm0-10.3a1 1 0 1 1-1.9 0 1 1 0 0 1 2 0Zm0-10a1 1 0 1 1-1.9 0 1 1 0 0 1 2 0Zm0-10.2a1 1 0 1 1-1.9 0 1 1 0 0 1 2 0Zm0-10.2a1 1 0 1 1-1.9 0 1 1 0 0 1 2 0Zm0-10.2a1 1 0 1 1-1.9 0 1 1 0 0 1 2 0Zm0-10.1a1 1 0 1 1-1.9 0 1 1 0 0 1 2 0Zm0-10.2a1 1 0 1 1-1.9 0 1 1 0 0 1 2 0Zm0-10.1a1 1 0 1 1-1.9 0 1 1 0 0 1 2 0Zm0-10.2a1 1 0 1 1-1.9 0 1 1 0 0 1 2 0Zm0-10.2a1 1 0 1 1-1.9 0 1 1 0 0 1 2 0Zm0-10.2a1 1 0 1 1-1.9 0 1 1 0 0 1 2 0Zm0-10.1a1 1 0 1 1-1.9 0 1 1 0 0 1 2 0Zm0-10.2a1 1 0 1 1-1.9 0 1 1 0 0 1 2 0ZM3.1 1a1 1 0 1 1-1.9 0 1 1 0 0 1 2 0Z" class="cls-2"/>
      </g>
    </g>
  </g>
</svg>
